<?xml version="1.0" standalone="no"?>
<!DOCTYPE svg PUBLIC "-//W3C//DTD SVG 20010904//EN"
 "http://www.w3.org/TR/2001/REC-SVG-20010904/DTD/svg10.dtd">
<svg version="1.0" xmlns="http://www.w3.org/2000/svg"
 width="900.000000pt" height="793.000000pt" viewBox="0 0 900.000000 793.000000"
 preserveAspectRatio="xMidYMid meet">
<metadata>
Created by potrace 1.15, written by Peter Selinger 2001-2017
</metadata>
<g transform="translate(0.000000,793.000000) scale(0.100000,-0.100000)"
fill="#000000" stroke="none">
<path d="M7785 7327 c-2 -7 -6 -113 -9 -237 -8 -312 -25 -756 -32 -807 -4 -34
-9 -43 -25 -43 -25 0 -25 -26 1 -33 18 -4 20 -14 20 -75 0 -66 -1 -70 -25 -76
-14 -4 -25 -11 -25 -16 0 -6 11 -15 25 -20 15 -6 25 -17 25 -30 0 -30 47 -28
52 3 3 21 7 22 132 25 71 2 142 -2 158 -7 24 -9 32 -7 50 11 16 16 18 22 7 29
-8 5 -24 9 -36 9 -13 0 -23 5 -23 11 0 8 -4 8 -12 1 -7 -5 -69 -12 -138 -13
l-125 -4 0 67 c0 37 5 71 10 75 6 5 73 6 150 3 138 -5 139 -5 146 -30 l7 -25
1 27 c1 17 8 29 21 33 62 20 -17 46 -145 48 -55 1 -108 6 -117 11 -14 6 -18 4
-18 -9 0 -12 -7 -16 -27 -13 -28 3 -28 3 -31 93 -3 83 11 557 24 836 6 112 5
116 -15 122 -28 7 -27 25 2 29 l22 3 -23 7 c-14 4 -25 2 -27 -5z"/>
<path d="M7009 5818 c0 -2 -1 -49 -3 -106 -1 -77 -5 -106 -16 -113 -12 -8 -12
-12 -2 -16 16 -6 5 -154 -12 -166 -7 -5 -5 -11 7 -18 17 -10 15 -12 -14 -28
-40 -21 -45 -34 -24 -55 14 -14 39 -22 118 -40 21 -5 27 -12 28 -34 1 -50 24
-97 47 -97 12 0 22 -4 22 -8 1 -62 -1 -63 -71 -80 -23 -6 -28 -2 -38 22 -7 15
-30 38 -52 51 -35 19 -49 21 -107 16 -37 -4 -89 -7 -117 -8 -36 0 -41 -2 -17
-5 17 -2 32 -6 32 -9 0 -2 -11 -21 -24 -42 -16 -25 -29 -70 -40 -135 -9 -55
-14 -102 -12 -105 2 -4 -2 -65 -10 -137 -12 -114 -16 -132 -36 -147 -16 -13
-33 -17 -56 -13 -24 4 -34 2 -38 -10 -10 -25 -24 -17 -24 13 0 40 -29 124 -48
140 -14 11 -14 12 0 12 29 0 37 22 26 70 -24 105 -34 115 -130 141 l-48 13 1
53 c2 54 -18 98 -47 110 -26 10 -75 -11 -91 -38 -15 -24 -15 -33 -1 -88 l14
-60 -38 -16 c-33 -13 -43 -25 -72 -86 l-34 -71 -12 36 c-13 41 -30 39 -30 -3
0 -28 29 -79 30 -52 0 11 6 9 20 -7 25 -26 28 -51 4 -31 -14 11 -18 11 -29 -4
-7 -10 -19 -15 -27 -12 -8 3 -43 0 -77 -8 -33 -8 -61 -11 -61 -7 0 4 -6 10
-14 13 -11 5 -15 -14 -7 -43 2 -8 105 1 116 11 10 10 55 13 55 4 0 -3 -7 -17
-17 -31 -18 -28 -20 -81 -4 -97 20 -20 11 -28 -11 -13 -25 18 -64 21 -73 6 -3
-5 1 -20 9 -32 20 -28 20 -38 1 -38 -12 0 -14 -7 -9 -27 9 -39 13 -43 37 -44
l22 0 -22 -9 c-47 -19 -49 -85 -2 -85 21 0 24 -4 23 -32 -3 -47 9 -41 29 16
20 58 21 78 5 84 -8 3 -6 6 5 6 12 1 17 9 17 34 -1 26 -2 29 -11 14 -8 -14
-14 -15 -31 -6 -14 8 -23 8 -31 0 -6 -6 -15 -11 -19 -11 -14 0 -9 27 8 41 12
10 20 10 35 1 14 -9 25 -10 40 -1 11 6 23 8 27 5 3 -4 10 -59 14 -124 12 -168
20 -206 41 -210 21 -4 22 10 0 56 -16 33 -16 40 0 111 10 42 20 90 23 106 9
52 25 75 53 75 33 0 88 -35 71 -45 -8 -5 -6 -11 6 -19 9 -7 14 -18 10 -24 -5
-8 0 -12 13 -12 17 0 21 -6 21 -32 0 -18 11 -69 25 -113 14 -44 25 -81 25 -82
0 0 -26 -4 -58 -8 -32 -3 -63 -10 -70 -14 -13 -8 -2 -92 26 -192 10 -37 17
-81 14 -98 -4 -30 -3 -31 34 -31 57 0 65 8 54 54 -9 41 0 79 42 174 l20 47 15
-35 c30 -72 102 -123 222 -156 34 -10 61 -21 61 -25 0 -4 -23 -72 -51 -151
-95 -267 -119 -349 -138 -485 -10 -66 -1 -52 -192 -308 -20 -27 -45 -67 -55
-88 -15 -32 -16 -40 -4 -47 11 -7 12 -11 0 -25 -20 -24 -3 -32 91 -39 83 -7
88 -6 117 19 37 31 43 31 70 2 27 -29 27 -38 1 -111 -11 -32 -18 -64 -15 -71
8 -23 99 -44 221 -52 114 -8 120 -9 123 -30 3 -19 10 -23 43 -23 29 0 39 -4
39 -16 0 -12 9 -15 43 -12 42 3 42 2 45 -33 2 -23 -2 -40 -12 -49 -10 -8 -16
-29 -16 -56 0 -24 -4 -44 -10 -44 -5 0 -10 -8 -10 -19 0 -11 -9 -21 -22 -25
-17 -4 -20 -8 -11 -17 8 -8 103 -13 307 -16 295 -4 336 0 336 30 0 14 -103 36
-203 44 -104 7 -189 21 -200 32 -7 7 -4 25 7 56 10 25 15 52 12 60 -7 20 0 22
73 26 l64 4 3 -33 c9 -75 63 -136 121 -134 20 1 41 6 47 12 6 6 13 39 16 73
l5 62 40 -3 c22 -2 43 -8 46 -14 13 -21 164 24 196 58 20 20 22 31 18 82 -4
49 -2 61 12 66 26 10 11 162 -34 344 -10 42 -13 82 -9 118 4 37 2 65 -8 88
-14 33 -46 53 -65 41 -5 -3 -12 -1 -15 3 -3 5 15 33 40 62 36 43 42 55 33 67
-8 9 -21 12 -36 8 -13 -3 -23 -4 -23 -3 0 2 7 37 16 78 19 90 11 300 -12 337
-8 12 -14 31 -14 42 0 20 -21 115 -42 186 -6 22 -15 65 -19 95 -4 30 -15 87
-24 125 -13 54 -14 77 -6 101 8 22 8 40 1 58 -5 15 -10 45 -10 67 0 44 8 47
64 24 32 -13 37 -14 42 -1 3 8 0 25 -7 38 -7 13 -12 29 -10 37 1 7 -8 25 -21
38 -16 18 -19 27 -10 30 6 3 12 16 12 30 0 19 -4 24 -16 19 -14 -5 -15 -1 -10
21 18 82 18 93 -12 185 -17 51 -36 123 -42 160 -17 94 -22 98 -112 104 -42 2
-88 8 -102 14 -31 11 -90 69 -81 78 4 4 14 -2 22 -13 11 -14 17 -16 20 -7 3 6
10 12 17 12 7 0 29 15 50 34 34 30 37 37 31 66 l-7 32 39 -6 c40 -7 93 6 93
23 0 6 -36 27 -80 48 l-79 38 1 65 c1 36 -2 75 -6 86 -15 48 -175 86 -266 64
-49 -12 -49 -12 -60 -66 -13 -60 -17 -65 -60 -66 -17 -1 -33 -5 -36 -10 -15
-24 -24 -1 -24 60 0 72 7 91 30 90 64 -4 110 3 110 17 0 11 -12 15 -49 15 -28
0 -53 -5 -56 -10 -5 -8 -12 -7 -22 2 -13 10 -14 29 -9 115 5 71 4 103 -3 103
-6 0 -11 -1 -12 -2z m-814 -1233 c-2 -51 -6 -99 -10 -105 -3 -5 -22 -10 -41
-10 -33 0 -46 -14 -21 -23 9 -3 8 -8 -3 -20 -20 -21 -46 -6 -35 19 4 11 8 26
9 34 1 8 17 57 36 108 25 67 39 92 52 92 15 0 16 -11 13 -95z m1216 -80 c0
-11 7 -36 14 -55 l13 -35 3 55 2 55 8 -64 c5 -37 4 -69 -1 -76 -14 -17 -6
-111 30 -339 6 -38 8 -71 5 -74 -3 -3 -5 2 -5 11 0 10 -5 17 -10 17 -6 0 -10
-15 -9 -32 4 -59 -1 -99 -11 -93 -5 3 -10 32 -10 64 0 31 -5 62 -12 69 -8 8
-8 15 2 26 8 10 10 28 5 52 -6 35 -25 219 -28 277 -3 43 -17 32 -17 -14 0 -26
-4 -38 -11 -34 -6 4 -8 13 -5 20 2 7 -2 30 -9 51 -12 34 -12 40 2 51 12 10 14
23 9 63 -7 49 -6 50 14 38 11 -7 20 -22 21 -33z"/>
<path d="M2921 5780 c-29 -4 -58 -13 -65 -19 -6 -7 -15 -46 -21 -89 l-10 -77
-64 -7 c-78 -9 -91 -13 -91 -32 0 -14 54 -38 110 -50 22 -5 28 -14 39 -67 16
-81 54 -142 82 -134 11 4 25 2 32 -3 7 -6 15 -11 20 -11 4 -1 7 -3 7 -6 0 -3
0 -30 0 -60 0 -43 -3 -55 -16 -55 -8 0 -13 -4 -9 -9 3 -5 0 -13 -6 -17 -9 -5
-10 1 -5 19 6 24 2 28 -41 47 -54 24 -59 23 -188 -26 l-92 -36 -22 -86 c-12
-48 -22 -118 -24 -157 l-2 -70 40 3 c74 5 78 -4 76 -173 0 -82 3 -151 8 -154
12 -8 16 -71 6 -95 -8 -18 -9 -18 -21 -1 -8 11 -21 16 -34 12 -12 -3 -35 -1
-52 5 -23 8 -32 8 -38 -2 -5 -9 -19 -10 -43 -6 -24 5 -36 3 -39 -6 -4 -10 -8
-10 -19 -2 -18 14 -189 16 -189 2 0 -7 -5 -6 -14 1 -7 6 -21 9 -30 5 -11 -4
-16 -1 -16 10 0 24 -19 19 -32 -9 -10 -23 -12 -23 -24 -7 -10 14 -17 15 -42 6
-22 -9 -33 -8 -47 2 -24 18 -36 18 -29 1 3 -10 -4 -14 -26 -14 -16 0 -30 4
-30 9 0 5 -9 4 -19 -2 -11 -5 -27 -7 -35 -4 -10 4 -16 1 -16 -7 -1 -9 -4 -8
-11 4 -6 9 -15 15 -20 11 -6 -3 -19 2 -30 12 -23 21 -24 13 -2 -29 9 -17 19
-43 23 -56 5 -19 13 -25 33 -24 72 3 71 3 59 15 -14 14 -16 48 -3 48 5 0 12
-14 16 -31 6 -28 10 -30 43 -27 34 3 37 5 34 32 -3 18 0 26 7 22 6 -4 11 -16
11 -27 0 -18 5 -19 73 -15 39 3 75 6 79 6 4 0 9 10 11 23 l4 22 8 -22 c7 -21
14 -23 74 -23 36 0 98 5 136 10 39 6 84 12 100 14 17 2 63 7 103 11 76 7 83 3
60 -35 -11 -17 -10 -22 1 -30 11 -6 12 -12 4 -22 -6 -7 -14 -34 -18 -60 -5
-31 -13 -49 -24 -53 -21 -7 -45 -55 -26 -55 7 0 15 7 19 15 7 18 26 20 26 3 0
-7 -5 -29 -10 -49 -11 -39 -41 -59 -90 -59 -17 0 -30 -5 -30 -11 0 -6 8 -8 18
-5 9 2 31 7 48 11 l31 6 -28 -83 c-15 -45 -31 -108 -34 -140 -4 -35 -12 -58
-19 -58 -30 0 -44 -27 -51 -94 l-7 -69 35 6 c46 7 47 3 47 -193 0 -143 3 -162
31 -255 43 -143 47 -180 21 -214 -11 -16 -26 -48 -32 -72 -15 -55 -23 -65 -60
-72 -16 -4 -36 -18 -45 -31 -17 -26 -45 -142 -37 -151 3 -2 14 -2 26 1 15 3
31 -6 58 -33 35 -36 37 -41 28 -73 -6 -19 -10 -47 -10 -62 0 -28 21 -39 103
-53 l37 -6 0 -57 c0 -66 36 -154 70 -172 11 -6 38 -10 58 -8 34 3 38 6 51 48
18 57 20 59 37 36 24 -34 18 -64 -16 -71 -16 -4 -30 -10 -30 -13 0 -4 -21 -15
-47 -25 -52 -19 -90 -43 -81 -53 22 -21 378 -8 565 21 51 8 137 15 190 16 136
1 198 10 198 29 0 10 -11 15 -35 16 -19 1 -58 13 -86 28 -50 26 -56 27 -170
21 -66 -2 -145 -8 -176 -11 -55 -6 -58 -5 -58 17 0 14 -15 35 -40 57 -49 41
-46 55 3 18 57 -43 88 -44 135 -2 45 41 64 45 84 15 24 -37 145 -72 173 -49 9
8 32 9 67 5 51 -6 56 -5 118 37 36 23 71 56 80 71 14 27 14 29 -12 48 -37 27
-36 40 1 26 27 -10 41 -5 145 46 116 58 148 86 161 140 6 21 1 32 -23 54 -16
15 -49 62 -72 103 -46 83 -107 167 -126 174 -22 8 -95 125 -110 176 -8 27 -37
97 -65 157 -62 131 -104 244 -128 338 -10 39 -31 108 -48 155 -62 175 -63 184
-34 200 33 17 41 12 41 -26 0 -21 4 -33 10 -29 6 3 10 17 10 31 0 17 8 27 24
34 28 10 44 30 24 30 -7 -1 -40 -7 -73 -15 -33 -8 -63 -15 -66 -15 -9 0 -49
95 -49 115 0 9 -12 27 -26 40 l-26 24 25 -4 c13 -3 29 1 34 8 14 16 23 107 12
107 -5 0 -9 10 -9 23 0 26 -21 77 -32 77 -5 0 -8 6 -8 14 0 14 -52 32 -77 27
-7 -1 -13 6 -13 15 0 14 7 16 49 11 34 -4 52 -2 55 6 5 9 7 9 12 0 3 -7 12 -9
20 -6 11 4 7 10 -15 20 -29 15 -77 80 -66 91 2 3 14 -3 25 -13 26 -23 26 -8 0
25 -23 29 -26 52 -6 44 11 -4 10 3 -4 32 -12 23 -16 43 -11 52 5 8 6 34 3 57
-2 23 1 59 7 78 9 28 9 40 0 55 -10 16 -9 35 1 93 8 41 14 93 13 116 0 24 3
40 8 37 5 -3 9 -2 9 3 -1 7 -53 31 -153 72 -25 10 -26 13 -16 33 15 28 4 118
-21 176 -27 60 -20 79 33 87 97 16 108 57 19 70 -96 14 -92 10 -92 80 0 83
-11 112 -47 118 -60 12 -140 15 -192 7z m137 -302 c-2 -17 2 -22 14 -20 17 3
58 -42 58 -64 0 -22 16 -16 27 9 10 21 11 21 26 -16 37 -86 30 -189 -9 -156
-8 6 -14 18 -14 25 0 8 -4 14 -8 14 -5 0 -14 -75 -21 -167 -14 -195 -27 -259
-47 -242 -8 6 -14 19 -14 27 0 12 -3 13 -12 4 -9 -9 -8 -16 5 -30 23 -25 21
-49 -3 -64 -11 -7 -20 -22 -20 -33 0 -11 -5 -27 -10 -35 -11 -18 -13 1 -10
130 1 77 0 86 -17 87 -13 1 -19 -6 -21 -24 -3 -33 -9 -40 -23 -26 -7 7 -8 17
-3 25 8 13 8 32 -1 75 -3 14 -10 20 -23 16 -12 -3 -18 2 -19 16 -2 25 0 25 40
4 18 -9 44 -17 59 -17 15 -1 33 -7 40 -13 17 -18 29 -16 22 2 -4 8 -1 15 6 15
6 0 8 5 4 11 -5 8 -8 8 -14 0 -7 -13 -40 -4 -40 11 0 5 -4 7 -9 3 -5 -3 -12
-1 -16 5 -3 5 -19 10 -34 10 -36 0 -66 22 -58 43 4 10 13 14 22 11 11 -5 15 1
15 20 0 14 5 25 12 24 6 -2 20 14 31 35 11 20 23 37 27 37 3 0 5 -27 4 -61 -2
-93 13 -56 26 65 6 61 12 114 13 120 3 14 -44 20 -52 7 -4 -6 -21 -14 -39 -17
-26 -5 -33 -3 -38 12 -3 11 -10 27 -15 37 -14 27 13 67 40 60 15 -4 24 2 32
21 9 19 20 26 41 26 25 0 29 -4 26 -22z m-100 -766 c-1 -15 2 -37 6 -50 5 -14
3 -22 -5 -22 -8 0 -9 -3 0 -13 6 -8 8 -17 4 -20 -3 -4 0 -14 7 -22 10 -12 10
-19 2 -27 -14 -14 -16 -72 -3 -64 18 11 21 -27 5 -52 -11 -16 -13 -27 -6 -30
15 -5 5 -181 -20 -344 -21 -136 -21 -136 -44 -128 -13 5 -26 5 -29 1 -2 -5 6
-12 20 -15 28 -7 34 -26 9 -26 -14 0 -14 -3 -3 -16 8 -10 9 -18 3 -22 -9 -6
-12 -87 -4 -117 1 -5 -1 -20 -5 -33 -5 -16 -13 -21 -25 -17 -19 6 -23 0 -77
-107 -13 -27 -26 -48 -28 -48 -4 0 16 68 34 113 6 16 11 38 11 50 0 13 14 34
32 49 31 26 32 27 10 28 -13 0 -20 -4 -17 -10 3 -5 2 -10 -4 -10 -6 0 -9 23
-8 55 1 30 5 55 8 55 13 0 18 44 6 52 -9 6 -9 8 0 8 6 0 13 10 15 23 2 18 9
22 35 21 17 0 30 4 27 8 -3 4 -11 8 -19 8 -22 0 -26 30 -20 151 11 220 13 379
5 379 -5 0 -12 -29 -15 -65 -8 -74 -20 -80 -16 -7 4 69 29 242 30 209 2 -46
21 -20 21 29 0 26 5 44 11 44 8 0 10 -19 6 -60 -3 -33 -1 -60 4 -60 5 0 10 19
11 43 1 42 4 75 7 90 3 20 20 -6 19 -31z m95 -68 c3 -4 0 -13 -8 -21 -26 -26
-19 -46 15 -41 28 4 30 2 29 -26 -1 -33 -16 -88 -19 -71 -1 6 -1 22 0 36 1 19
-5 28 -19 32 -14 3 -21 0 -21 -9 0 -8 8 -14 18 -15 10 0 12 -3 5 -6 -16 -6
-18 -113 -3 -113 6 0 10 9 10 20 0 11 4 20 9 20 13 0 8 -113 -7 -118 -16 -5
-17 -93 0 -90 16 4 35 -105 19 -110 -16 -5 -13 -22 4 -22 8 0 16 -3 16 -7 6
-31 10 -133 9 -203 -1 -35 18 -180 27 -212 3 -11 -1 -18 -10 -18 -10 0 -18 22
-26 78 -43 282 -52 354 -66 497 -8 88 -17 215 -20 283 -5 114 -4 122 13 122
10 0 21 -3 25 -6z m-66 -766 c-3 -18 2 -120 10 -227 8 -107 12 -205 8 -218 -6
-26 -22 -31 -22 -8 0 8 4 15 9 15 16 0 8 19 -13 31 -15 8 -19 8 -15 0 5 -7 -2
-11 -16 -11 -21 -1 -22 -2 -5 -14 9 -7 17 -25 17 -39 0 -29 16 -43 43 -39 10
2 17 -3 17 -12 0 -10 -6 -13 -15 -10 -8 4 -15 1 -15 -5 0 -6 5 -11 10 -11 6 0
10 -9 10 -21 0 -23 -24 -21 -26 2 0 8 -2 22 -2 32 -1 11 -10 17 -26 17 -21 0
-24 6 -30 50 -3 28 -9 73 -12 100 -5 34 -3 50 5 50 6 0 12 -8 12 -17 1 -10 4
-4 8 12 4 17 3 46 -1 65 -11 49 -10 82 2 75 6 -3 10 -15 10 -26 0 -11 4 -18 8
-15 5 3 7 19 4 36 -3 21 -9 30 -21 28 -23 -4 -16 60 10 88 11 11 17 23 14 25
-6 6 14 79 22 79 3 0 3 -15 0 -32z"/>
<path d="M4934 5620 c-50 -5 -70 -14 -116 -49 -54 -41 -56 -43 -78 -130 l-23
-88 -64 -1 c-67 -1 -93 -12 -93 -43 0 -21 84 -81 108 -77 13 3 15 -11 13 -107
-2 -60 -7 -115 -12 -121 -12 -14 -46 -28 -123 -50 l-58 -16 5 -67 c3 -36 17
-120 33 -186 29 -124 30 -148 18 -374 -2 -51 -9 -102 -15 -114 -9 -16 -8 -22
5 -29 22 -12 20 -25 -4 -33 -17 -5 -50 -51 -50 -69 0 -15 68 9 88 31 28 31 40
23 23 -14 -8 -18 -15 -23 -20 -15 -5 9 -14 5 -30 -12 -13 -14 -20 -29 -17 -34
3 -5 -10 -17 -29 -26 -41 -20 -45 -44 -15 -94 25 -41 25 -45 -1 -37 -20 7 -21
5 -14 -46 3 -30 10 -67 15 -84 9 -32 24 -626 23 -880 -1 -123 -5 -160 -21
-205 -11 -30 -25 -77 -31 -105 -18 -87 -42 -266 -36 -276 4 -5 15 -9 26 -9 10
0 19 -5 19 -11 0 -9 20 -10 70 -5 70 6 70 6 70 -19 0 -14 3 -25 8 -26 4 0 25
-2 47 -5 59 -7 189 -3 225 7 10 3 17 -8 24 -34 7 -26 15 -37 28 -37 10 0 18
-3 18 -7 -1 -21 -21 -32 -77 -44 -46 -9 -60 -16 -53 -25 8 -8 92 -11 305 -12
260 0 300 2 342 18 l48 18 -39 16 c-21 9 -42 16 -46 16 -4 0 -10 7 -14 15 -3
10 -19 15 -46 15 -22 0 -40 5 -40 10 0 6 14 10 30 10 17 0 41 7 53 15 12 8 62
19 111 24 49 6 90 12 92 14 5 5 -30 121 -77 252 -46 130 -75 271 -90 438 -6
67 -17 149 -25 181 -21 81 -27 175 -17 271 l8 79 45 8 c25 4 63 15 85 24 99
40 134 58 130 65 -3 4 -7 38 -10 76 -7 104 -16 163 -24 159 -11 -7 -29 78 -37
169 -6 77 -20 160 -64 365 -11 52 -20 107 -20 121 0 35 -20 89 -32 89 -6 0 -8
-14 -4 -34 7 -37 -2 -50 -24 -36 -11 7 -12 11 0 24 15 19 5 35 -12 18 -7 -7
-19 -12 -27 -12 -8 0 -49 -16 -91 -36 -57 -27 -83 -46 -110 -81 -32 -42 -35
-53 -37 -117 -2 -79 -11 -329 -12 -335 -1 -2 -7 2 -15 8 -10 8 -16 9 -21 1
-33 -54 -34 115 -1 261 14 59 27 127 31 152 8 55 19 65 115 108 129 58 123 49
121 183 -2 110 -10 180 -26 219 -5 12 -2 17 10 17 17 0 17 1 2 18 -10 10 -17
25 -17 33 0 8 -16 52 -35 98 -19 45 -35 91 -35 102 0 11 -8 36 -19 57 -10 20
-33 83 -50 139 -17 57 -56 150 -87 207 -45 86 -60 106 -86 115 -33 12 -32 12
-124 1z"/>
<path d="M1050 5408 c-16 -9 -30 -29 -38 -58 -8 -25 -15 -51 -18 -57 -2 -8
-20 -13 -41 -13 -42 -1 -120 -36 -137 -63 -17 -26 4 -50 59 -68 l49 -17 1 -71
c0 -53 4 -75 17 -88 22 -21 36 -9 20 17 -7 11 -12 31 -12 46 0 38 23 24 34
-21 8 -37 7 -41 -25 -67 -18 -15 -45 -28 -59 -28 -14 0 -34 -7 -44 -15 -12 -9
-42 -15 -72 -15 -29 0 -60 -3 -69 -6 -26 -10 -47 -62 -50 -125 -2 -31 -6 -63
-10 -70 -4 -6 -9 -57 -10 -113 -2 -55 -5 -116 -8 -133 -7 -37 -1 -42 19 -15
13 16 13 16 14 -1 0 -9 -11 -45 -25 -79 -24 -58 -33 -99 -19 -85 8 8 40 -32
47 -58 4 -18 5 -18 6 3 2 34 19 26 23 -10 2 -18 8 -32 14 -31 14 3 11 -50 -3
-69 -22 -29 -44 -91 -50 -138 -3 -28 -10 -50 -14 -50 -10 0 -13 55 -10 173 1
42 -1 77 -4 77 -4 0 -18 -9 -32 -20 -14 -11 -34 -20 -44 -20 -23 0 -24 -7 -4
-27 9 -8 22 -12 30 -9 23 8 8 -43 -21 -75 -30 -31 -30 -35 -1 -44 l22 -8 -23
-4 c-19 -4 -23 -9 -18 -28 4 -16 1 -25 -11 -29 -14 -6 -13 -9 8 -23 13 -9 26
-18 29 -20 2 -2 -2 -8 -10 -13 -13 -8 -12 -10 3 -10 9 0 17 4 17 10 0 5 11 12
25 16 14 3 30 14 35 23 8 13 9 11 10 -12 0 -16 -4 -26 -9 -23 -5 3 -15 -2 -22
-11 -12 -15 -12 -16 4 -10 21 8 23 -15 3 -33 -8 -6 -23 -31 -32 -56 -9 -24
-20 -44 -23 -44 -14 0 -61 25 -61 33 0 4 -4 7 -10 7 -13 0 -13 -137 0 -145 6
-4 8 -10 6 -14 -7 -11 52 -63 64 -56 17 10 9 -77 -8 -98 -12 -13 -17 -15 -24
-5 -5 9 -8 6 -8 -9 0 -18 6 -23 26 -23 19 0 24 -4 20 -17 -3 -10 -8 -34 -11
-53 -3 -19 -12 -40 -20 -46 -11 -8 -16 -38 -18 -118 -1 -61 2 -107 8 -109 18
-6 -31 -415 -62 -517 -19 -61 -26 -160 -12 -160 5 0 11 0 14 0 3 0 19 -7 36
-16 23 -11 34 -13 42 -5 16 16 52 13 67 -4 17 -21 36 -19 60 5 12 12 25 18 31
15 20 -13 73 -14 81 -2 5 8 35 12 85 13 43 0 88 4 100 8 19 6 25 2 39 -27 19
-41 12 -138 -12 -158 -17 -14 -18 -39 -1 -39 8 0 7 -4 -3 -10 -12 -8 -13 -13
-3 -29 10 -15 9 -22 -2 -31 -8 -7 -15 -9 -15 -4 0 4 -5 3 -12 -4 -7 -7 -20
-12 -29 -12 -23 0 -44 -26 -29 -35 37 -23 470 -21 560 3 18 4 5 8 -45 14 -38
4 -99 11 -135 15 l-65 8 -1 36 c-1 20 -4 41 -8 48 -10 15 5 14 29 -3 31 -21
80 -29 92 -14 6 7 14 32 18 55 5 35 2 49 -20 88 -15 25 -25 48 -22 52 10 10
87 12 87 2 0 -5 6 -9 14 -9 7 0 19 -7 26 -15 7 -9 20 -13 29 -11 9 3 48 -1 86
-8 39 -8 74 -11 80 -8 5 3 32 6 60 7 27 1 67 5 88 10 36 7 38 9 32 37 -6 26
-5 29 12 24 14 -5 23 1 33 19 7 14 37 37 65 50 l51 25 -12 88 c-7 48 -21 132
-32 187 -24 115 -38 222 -47 350 -7 87 -41 292 -66 387 -9 35 -9 65 -1 120
l10 73 -2 -72 c-1 -51 2 -73 10 -73 7 0 15 -6 18 -12 5 -10 7 -10 12 0 3 6 13
12 21 12 10 0 14 6 10 19 -3 12 1 18 12 17 12 -1 16 8 16 31 0 17 3 35 8 39
11 11 9 54 -3 54 -5 0 -10 11 -10 25 0 14 -4 25 -10 25 -5 0 -10 9 -10 21 0
15 -4 19 -16 15 -18 -7 -104 13 -104 24 0 5 6 11 13 14 10 5 10 7 0 12 -18 8
-16 31 2 38 20 7 19 32 -1 40 -38 14 -43 8 -40 -51 1 -32 6 -65 9 -73 3 -8 2
-31 -2 -50 -5 -19 -9 -27 -10 -18 -2 30 -73 201 -101 243 -15 22 -30 50 -34
62 -4 11 -13 27 -21 33 -10 8 -15 31 -15 61 0 26 -4 50 -9 53 -12 8 -7 94 6
107 9 9 5 26 -13 67 -13 31 -23 60 -21 66 3 6 -1 22 -8 36 -7 14 -15 58 -19
99 -3 41 -12 81 -20 90 -18 21 -27 67 -33 164 -4 73 -3 79 16 84 26 7 26 15 4
35 -11 9 -33 15 -53 13 -48 -3 -55 3 -26 26 28 22 50 80 41 108 -5 16 -1 20
22 23 21 2 29 9 31 28 4 31 -23 58 -96 98 l-53 29 -3 67 c-1 46 -7 71 -19 83
-36 36 -231 65 -277 41z m130 -435 c0 -6 -9 -28 -21 -48 -12 -19 -19 -42 -15
-50 3 -8 0 -18 -7 -22 -30 -19 -39 -41 -27 -64 11 -19 10 -21 -4 -16 -15 6
-15 4 -1 -17 15 -22 14 -24 -5 -29 -23 -6 -28 -37 -6 -37 8 0 18 -5 22 -11 5
-9 -1 -10 -20 -5 -19 5 -26 3 -26 -8 0 -8 12 -17 28 -19 26 -4 26 -4 4 -12
-18 -6 -20 -10 -10 -22 10 -13 8 -14 -12 -11 -33 4 -35 -15 -4 -29 18 -8 33
-9 44 -3 25 13 110 145 110 170 0 13 4 19 11 14 14 -9 5 -84 -16 -123 -10 -20
-16 -74 -20 -178 -8 -237 -15 -302 -31 -296 -10 4 -12 26 -8 106 3 56 9 131
14 167 5 36 10 81 10 100 l0 35 -21 -32 c-11 -17 -33 -36 -49 -41 -27 -10 -28
-14 -23 -47 3 -20 1 -46 -5 -58 -6 -12 -18 -86 -27 -165 -9 -79 -20 -153 -25
-166 -4 -13 -15 -108 -24 -212 -27 -323 -38 -429 -43 -434 -6 -6 3 432 11 500
22 214 29 268 43 360 21 144 25 200 13 200 -17 0 -11 18 9 25 16 5 37 55 24
55 -15 0 -42 -23 -37 -31 3 -5 0 -16 -6 -24 -7 -8 -9 -22 -6 -32 4 -9 1 -20
-6 -25 -10 -6 -10 -10 2 -18 11 -7 12 -10 2 -10 -9 0 -11 -8 -8 -22 3 -13 3
-17 0 -10 -3 6 -10 10 -15 6 -5 -3 -5 -13 2 -25 11 -21 4 -59 -11 -59 -4 0
-11 -19 -15 -42 -4 -24 -11 -50 -15 -58 -4 -8 -10 -30 -13 -48 -9 -55 -17 -49
-12 9 4 57 44 249 63 309 6 19 25 96 42 170 17 74 40 153 50 175 10 22 22 54
26 70 4 17 15 41 26 54 24 31 23 40 -4 33 -14 -3 -19 -1 -14 6 9 15 56 11 56
-5z m-234 -565 c-2 -18 -12 -93 -22 -166 -14 -109 -15 -135 -4 -142 8 -5 10
-17 6 -33 -3 -14 -8 -70 -11 -124 -3 -54 -9 -129 -15 -168 -10 -75 -24 -271
-22 -319 1 -16 -3 -35 -9 -42 -7 -9 -7 -19 0 -33 6 -11 8 -22 4 -24 -5 -3 -8
-44 -7 -91 0 -46 -3 -83 -8 -80 -4 3 -8 -1 -8 -10 0 -8 -3 -21 -6 -30 -4 -11
-1 -16 11 -16 13 0 16 -6 11 -22 -3 -13 -6 -29 -6 -36 0 -7 -4 -10 -10 -7 -5
3 -10 2 -10 -4 0 -5 5 -13 10 -16 8 -5 8 -11 0 -20 -8 -10 -7 -14 2 -18 8 -4
7 -6 -4 -6 -22 -1 -24 -21 -3 -21 8 0 15 -7 15 -15 0 -18 -5 -18 -30 -5 -17 9
-18 19 -13 95 6 81 5 85 -15 85 -11 0 -23 4 -26 9 -6 9 69 550 79 579 3 8 10
91 16 185 6 95 15 177 20 183 5 6 11 49 14 95 2 46 11 120 20 164 8 44 15 81
15 83 0 1 2 2 5 2 3 0 3 -15 1 -32z m226 -597 c-1 -140 -4 -256 -6 -258 -3 -3
-17 6 -32 20 -20 19 -27 35 -28 66 0 23 -4 41 -9 41 -4 0 -6 3 -3 8 2 4 7 43
11 87 4 44 11 85 16 92 6 6 15 66 22 134 18 198 32 111 29 -190z"/>
<path d="M5608 4968 c-15 -12 -33 -63 -29 -81 1 -5 -8 -21 -19 -37 -17 -24
-18 -29 -5 -40 8 -7 15 -19 15 -26 0 -16 -27 -19 -32 -4 -1 5 -4 -14 -5 -42
-1 -46 3 -59 34 -100 19 -27 36 -48 39 -48 2 0 1 21 -3 46 -5 41 -3 48 21 70
14 14 26 34 26 46 0 26 30 50 46 37 6 -5 31 -12 55 -15 24 -3 50 -7 57 -9 15
-5 16 -61 1 -71 -13 -7 -5 -74 12 -106 16 -30 22 -13 9 26 -8 25 -8 46 -1 74
10 36 8 46 -35 138 -57 122 -84 154 -134 154 -20 0 -43 -6 -52 -12z"/>
<path d="M5545 4570 c-3 -5 -3 -22 0 -37 14 -66 29 -119 35 -128 4 -5 13 -34
19 -63 6 -30 16 -62 22 -73 5 -11 12 -36 15 -57 19 -144 22 -150 58 -136 9 3
13 11 9 17 -3 6 -7 22 -8 36 -3 42 -24 194 -31 221 -5 24 -5 24 11 5 25 -31
75 -201 86 -292 12 -91 8 -123 -10 -80 -30 75 -12 -19 29 -148 10 -33 20 -86
23 -118 3 -52 2 -57 -15 -51 -15 5 -18 0 -18 -35 0 -50 12 -52 62 -8 l37 32
-19 90 c-25 118 -24 122 8 47 15 -35 32 -62 37 -60 6 2 9 38 8 85 -3 92 -20
145 -89 280 -24 48 -44 90 -44 94 0 4 9 9 20 11 31 5 28 22 -6 29 -16 4 -22 7
-13 8 16 1 29 20 29 41 0 5 -16 10 -36 12 -32 3 -37 7 -56 53 -40 100 -48 115
-61 115 -7 0 -26 27 -42 60 -27 56 -46 73 -60 50z"/>
<path d="M8780 3982 c0 -22 -3 -87 -7 -145 -5 -98 -5 -107 12 -107 14 0 16 6
11 35 -5 24 -2 42 7 56 10 13 16 16 19 8 9 -27 30 4 25 36 -3 18 -1 37 5 43 6
6 6 12 -1 16 -7 5 -8 13 -2 25 8 15 18 16 63 10 85 -12 97 -10 53 10 -40 19
-150 51 -173 51 -7 0 -12 -15 -12 -38z"/>
<path d="M369 3219 c-15 -6 -30 -20 -33 -32 -8 -32 -7 -195 2 -199 4 -2 27 -1
52 3 29 4 35 7 18 7 -18 1 -28 8 -28 17 0 8 5 15 10 15 6 0 10 15 10 33 0 18
5 38 10 43 6 6 12 36 15 67 4 62 -1 66 -56 46z"/>
<path d="M8750 3228 c-6 -73 -4 -211 3 -215 4 -3 5 -12 2 -22 -4 -9 -9 -44
-11 -79 -3 -62 -2 -64 28 -80 17 -9 40 -25 51 -35 32 -31 137 -52 137 -27 0
14 -37 31 -54 24 -19 -7 -21 2 -4 20 7 7 22 10 35 8 27 -5 32 18 8 38 -12 10
-15 10 -15 0 0 -8 -3 -10 -7 -7 -3 4 -12 2 -20 -5 -7 -6 -17 -8 -21 -4 -9 9
37 48 48 41 5 -3 11 4 15 15 4 11 11 18 16 15 13 -9 25 30 33 107 7 65 7 68
-17 77 -13 5 -55 29 -93 54 -67 43 -134 80 -134 75z"/>
<path d="M8527 3104 c-14 -14 -7 -101 8 -114 8 -7 15 -20 15 -30 0 -22 20 -30
87 -36 49 -3 53 -2 59 20 14 56 -11 73 -75 52 -31 -11 -49 9 -59 64 -7 42 -20
58 -35 44z"/>
</g>
</svg>
