<?xml version="1.0" standalone="no"?>
<!DOCTYPE svg PUBLIC "-//W3C//DTD SVG 20010904//EN"
 "http://www.w3.org/TR/2001/REC-SVG-20010904/DTD/svg10.dtd">
<svg version="1.0" xmlns="http://www.w3.org/2000/svg"
 width="960.000000pt" height="958.000000pt" viewBox="0 0 960.000000 958.000000"
 preserveAspectRatio="xMidYMid meet">
<metadata>
Created by potrace 1.15, written by Peter Selinger 2001-2017
</metadata>
<g transform="translate(0.000000,958.000000) scale(0.100000,-0.100000)"
fill="#000000" stroke="none">
<path d="M1290 9428 c0 -84 -4 -263 -10 -398 -5 -135 -11 -337 -14 -450 -4
-183 -4 -198 7 -135 7 39 16 75 20 82 4 6 3 15 -3 18 -7 4 -9 39 -5 98 3 51 5
99 5 107 -1 90 9 140 30 140 15 0 22 -41 16 -94 -9 -76 -16 -292 -20 -580 -3
-215 -6 -270 -17 -277 -11 -7 -11 -11 -2 -17 8 -5 13 -44 15 -109 3 -87 0
-105 -15 -120 -15 -16 -19 -16 -27 -3 -13 20 -13 210 0 210 14 0 13 37 -1 46
-10 6 -8 96 6 250 5 46 -5 124 -15 124 -9 0 -29 -821 -20 -839 11 -21 23 22
24 89 1 30 7 64 13 75 11 19 12 19 23 -10 15 -36 5 -792 -10 -846 -8 -26 -7
-254 2 -414 0 -5 -3 -25 -6 -42 l-6 -33 117 0 c162 0 288 -31 448 -109 66 -33
148 -77 181 -100 70 -47 79 -50 63 -19 -14 27 -6 142 12 164 18 21 20 186 3
250 -12 48 -12 154 1 174 3 5 3 62 -1 126 -5 81 -11 120 -22 130 -21 21 -31
78 -22 120 5 20 6 42 4 49 -3 7 -1 16 5 20 6 3 11 19 11 35 0 23 6 31 24 36
36 9 62 40 48 57 -8 9 -12 87 -12 233 -1 318 7 767 13 784 3 8 8 48 12 89 6
73 6 74 -24 102 -38 34 -39 51 -6 77 26 20 33 60 15 78 -6 6 -2 24 12 52 16
33 18 46 9 55 -9 9 -13 6 -17 -11 -10 -37 -24 -25 -24 21 0 52 15 80 30 57 20
-31 29 8 32 139 l3 135 -25 6 c-19 4 -26 13 -28 38 -2 18 1 32 7 32 14 0 14
43 1 56 -6 6 -6 23 2 49 6 22 11 42 11 45 -1 3 -4 36 -7 74 -4 56 -2 71 10 81
12 8 17 31 19 83 l2 72 -449 0 -448 0 0 -152z"/>
<path d="M4488 9343 c1 -131 -1 -312 -5 -403 l-8 -165 -47 -7 c-106 -15 -272
-87 -339 -147 -29 -26 -47 -55 -63 -101 l-24 -65 -48 -7 c-74 -11 -273 -36
-429 -54 -138 -16 -452 -27 -441 -16 3 3 -1 14 -10 23 -16 17 -15 20 15 48 17
16 31 37 31 48 0 22 -36 83 -49 83 -23 0 -51 45 -51 81 0 34 -12 49 -42 53 -3
1 -10 4 -14 9 -4 4 -16 7 -26 7 -10 0 -18 6 -18 13 0 16 -50 38 -90 39 -17 1
-30 6 -30 14 0 7 -5 16 -11 20 -13 8 -124 7 -150 -2 -9 -2 -24 3 -34 12 -34
35 -197 5 -211 -38 -3 -10 -9 -18 -14 -18 -18 0 -30 -77 -30 -187 0 -61 -4
-145 -10 -185 -5 -40 -12 -190 -15 -333 -4 -143 -10 -368 -13 -500 -4 -132 -5
-260 -2 -285 l5 -45 29 40 c17 22 40 50 53 61 13 12 23 26 23 31 0 5 18 27 39
50 40 41 71 53 142 53 35 0 41 -5 76 -55 26 -37 45 -55 59 -55 12 0 33 -9 48
-21 15 -11 33 -19 40 -16 9 4 25 -10 42 -34 15 -22 35 -44 45 -49 9 -5 29 -39
45 -75 16 -36 31 -65 35 -65 4 0 9 15 12 33 5 34 -13 90 -39 118 -13 14 -15
34 -10 98 3 49 2 81 -4 81 -5 0 -7 -7 -4 -15 4 -9 0 -15 -9 -15 -9 0 -18 9
-22 20 -3 11 -19 27 -36 37 -16 9 -29 23 -29 31 0 7 -22 27 -50 44 -27 17 -50
34 -50 37 -1 3 -10 17 -21 31 -18 22 -30 25 -83 26 l-61 0 2 58 c1 36 8 65 18
75 8 10 15 24 15 33 0 8 11 25 25 38 14 13 25 28 25 34 -1 6 -21 27 -45 46
-25 19 -45 40 -45 47 0 15 102 93 150 114 71 33 92 32 139 -1 39 -29 42 -34
37 -65 -4 -19 -2 -36 3 -40 15 -9 61 25 72 51 22 59 170 90 284 59 55 -14 74
-26 130 -79 35 -34 72 -80 81 -102 9 -21 30 -54 47 -72 31 -32 32 -36 32 -123
0 -55 4 -92 11 -97 6 -4 15 -18 19 -32 4 -14 18 -42 32 -62 23 -34 25 -45 22
-117 -4 -75 -6 -82 -38 -115 l-34 -35 32 -78 c18 -43 36 -93 41 -112 12 -48
23 -56 62 -45 27 8 35 18 54 67 12 32 26 72 29 89 10 44 44 93 80 114 22 14
53 19 120 20 102 1 163 10 211 30 18 8 58 14 87 14 30 0 70 7 89 15 l35 14 5
391 c3 236 9 395 15 401 5 5 18 7 27 3 16 -6 17 -17 12 -103 -12 -193 -12
-824 0 -828 8 -3 14 42 18 154 10 223 13 264 24 275 27 27 32 -8 32 -207 0
-136 4 -206 11 -211 6 -3 73 6 150 21 122 25 146 33 200 69 91 60 105 67 123
60 9 -3 16 -16 16 -28 0 -25 33 -82 61 -105 31 -25 47 -86 41 -157 -4 -59 -3
-64 23 -88 15 -14 33 -26 39 -26 8 0 9 66 5 232 -4 128 -7 243 -8 255 0 12
-24 50 -52 85 -47 58 -99 154 -99 183 0 6 -11 22 -25 35 -13 12 -23 25 -22 29
0 3 -4 15 -10 26 -6 11 -14 40 -18 65 -3 25 -13 65 -20 90 -22 71 -28 135 -16
159 10 19 20 21 79 20 76 -2 176 16 210 38 15 9 34 12 52 8 21 -5 31 -2 38 10
8 15 15 13 62 -16 33 -21 70 -34 101 -37 33 -3 49 -9 49 -18 0 -11 -10 -13
-40 -8 -30 5 -47 2 -67 -12 -52 -34 -70 -42 -84 -33 -24 15 -58 10 -79 -13
-19 -21 -20 -23 -3 -29 10 -4 37 -5 59 -2 25 3 44 1 48 -6 10 -16 53 -14 80 4
15 10 40 14 76 12 54 -4 64 0 112 46 13 12 16 22 9 35 -5 9 -14 32 -20 49
l-10 33 72 -2 c40 -1 75 -7 79 -12 4 -6 60 -13 124 -16 l118 -7 32 -36 c17
-21 39 -37 49 -37 14 0 16 -7 13 -37 -4 -31 0 -43 23 -65 34 -35 43 -35 35 -3
-5 21 -3 25 17 25 16 0 26 -9 34 -31 13 -33 38 -31 28 2 -4 10 -4 19 -1 19 17
0 469 -192 616 -262 58 -28 126 -59 152 -69 26 -10 78 -34 116 -52 71 -35 83
-36 113 -6 17 17 17 18 -15 29 -42 14 -120 95 -191 199 -59 87 -115 194 -115
221 0 9 -4 20 -9 25 -5 6 -19 34 -30 62 l-21 53 63 30 c70 35 87 52 87 89 0
60 -67 131 -181 191 l-76 39 -26 128 c-50 240 -84 593 -59 593 15 0 19 -24 26
-135 9 -138 24 -243 42 -298 22 -65 28 -52 49 93 11 81 22 126 40 155 36 63
45 68 95 50 23 -8 51 -15 61 -15 44 0 116 -36 189 -95 43 -35 89 -69 101 -76
13 -6 44 -35 71 -63 l48 -51 18 24 c22 28 34 87 62 306 11 88 25 194 30 235 6
41 12 92 15 113 l5 37 -415 0 -415 0 -1 -117 c-1 -65 -1 -123 0 -130 2 -17
-16 -25 -25 -11 -4 7 -7 24 -6 38 1 14 -2 30 -6 36 -4 7 -82 51 -173 98 l-166
86 -141 0 -142 0 12 -27 c6 -16 20 -36 31 -46 23 -20 15 -36 -8 -17 -12 10
-15 10 -15 -3 0 -8 7 -17 15 -21 8 -3 15 -9 15 -13 0 -14 -62 -33 -74 -24 -9
7 -110 26 -256 47 -19 2 -75 7 -125 10 -49 2 -133 8 -185 12 l-95 7 0 38 0 37
-425 0 -425 0 3 -237z m53 -1355 c0 -90 3 -186 5 -215 3 -39 0 -56 -13 -69
-33 -32 -40 2 -36 178 5 213 10 268 29 268 11 0 14 -29 15 -162z"/>
<path d="M7784 9563 c11 -35 37 -170 56 -288 11 -66 24 -136 30 -155 16 -53
33 -324 27 -415 -21 -311 -28 -364 -67 -520 -22 -88 -60 -209 -85 -270 -25
-60 -39 -103 -31 -95 19 20 106 194 106 214 0 8 4 17 9 20 5 3 11 18 14 33 3
16 16 73 30 128 43 170 70 403 67 575 -3 238 -32 555 -60 673 -29 120 -27 117
-67 117 -28 0 -33 -3 -29 -17z"/>
<path d="M8380 9536 c0 -73 40 -286 71 -380 40 -119 93 -219 138 -256 20 -17
52 -44 71 -61 l35 -30 -22 -16 c-30 -20 -29 -44 2 -73 25 -23 25 -26 25 -185
0 -180 3 -191 62 -204 31 -7 36 -6 31 8 -4 12 -3 13 4 3 6 -7 10 -31 11 -52 3
-66 2 -66 -378 143 -91 50 -195 110 -231 134 -102 66 -229 119 -229 96 0 -6
24 -23 53 -38 28 -16 95 -53 147 -84 100 -57 133 -75 349 -187 138 -71 181
-107 148 -126 -25 -13 -21 -36 14 -76 30 -34 31 -39 26 -96 -3 -34 -3 -108 0
-165 l6 -103 44 -19 c43 -18 52 -35 37 -73 -9 -22 -28 -20 -73 9 -41 25 -91
42 -91 30 0 -3 5 -16 11 -27 6 -11 12 -30 13 -42 2 -12 15 -34 29 -50 22 -24
27 -38 27 -82 0 -29 -5 -56 -10 -59 -7 -4 -8 -24 -4 -53 4 -26 3 -44 0 -40 -4
3 -8 12 -10 20 -5 30 -57 120 -83 143 -51 44 -84 25 -45 -26 33 -44 92 -159
92 -181 0 -21 -1 -20 -29 6 -52 50 -92 9 -46 -45 18 -22 25 -39 21 -53 -3 -12
-6 -27 -6 -34 0 -10 -5 -10 -20 -2 -26 14 -45 61 -54 133 -4 31 -12 59 -17 63
-15 9 -39 -16 -39 -40 0 -24 -35 -50 -52 -40 -20 13 10 229 46 332 21 57 4 53
-21 -5 -56 -126 -79 -250 -85 -448 l-3 -110 25 -1 c14 -1 30 -2 37 -3 7 0 34
-32 60 -71 26 -38 51 -70 54 -70 4 0 9 11 13 24 4 15 -6 51 -29 104 -51 118
-46 142 30 128 42 -8 65 -45 65 -106 0 -45 8 -50 35 -20 24 27 35 10 25 -37
-11 -47 -16 -50 -49 -30 -16 9 -36 17 -45 17 -14 0 -15 -4 -6 -20 8 -15 17
-19 30 -15 13 4 28 -2 44 -18 23 -23 24 -30 21 -128 -3 -133 -23 -396 -36
-474 -5 -33 -12 -112 -15 -175 -4 -75 -12 -124 -22 -142 -14 -24 -14 -29 2
-52 9 -14 20 -26 25 -26 10 0 21 49 21 91 0 15 5 31 11 34 17 11 37 -25 47
-85 13 -73 4 -798 -10 -826 -7 -16 -7 -32 1 -56 13 -41 6 -327 -10 -425 -11
-61 -11 -62 -37 -52 -18 7 -29 6 -38 -3 -11 -11 -9 -23 11 -67 24 -52 33 -125
17 -135 -5 -3 -34 -2 -65 1 -50 5 -58 9 -63 29 -4 15 0 34 10 49 13 19 16 53
16 172 0 191 17 381 36 410 10 17 12 37 8 77 -4 33 5 193 22 391 19 234 25
338 17 343 -6 4 -20 26 -31 48 -21 42 -99 124 -130 136 -24 9 -52 10 -52 0 0
-4 20 -19 45 -34 50 -30 70 -64 110 -185 27 -82 27 -82 15 -215 -6 -73 -15
-146 -20 -163 -5 -16 -14 -102 -20 -190 -5 -88 -15 -203 -20 -255 -5 -52 -14
-151 -20 -220 -18 -199 -47 -291 -84 -261 -34 28 -38 129 -34 830 l3 684 -25
11 c-14 6 -28 15 -32 20 -4 6 -10 7 -14 3 -4 -4 2 -25 14 -46 22 -38 22 -40
16 -512 -3 -287 -11 -530 -19 -616 -15 -149 -57 -357 -82 -408 -18 -36 -73
-95 -88 -95 -16 0 -55 56 -66 93 -5 18 -14 61 -19 97 -5 36 -16 110 -25 165
-8 55 -17 119 -19 143 -4 56 -16 66 -17 16 -1 -21 -3 -31 -6 -21 -4 14 -8 16
-19 6 -8 -6 -14 -18 -14 -26 0 -9 -6 -13 -14 -10 -11 5 -17 -6 -22 -41 -3 -26
-15 -66 -25 -89 -11 -23 -19 -63 -19 -89 0 -32 -8 -61 -25 -89 -20 -36 -28
-42 -49 -38 -32 6 -72 46 -98 96 -17 35 -23 39 -49 33 -56 -11 -76 -32 -83
-89 -8 -63 -71 -351 -94 -427 -20 -64 -20 -121 1 -248 8 -51 11 -107 8 -125
-7 -32 -7 -32 -20 -9 -9 16 -18 21 -32 17 -13 -4 -19 -2 -19 8 0 10 -7 13 -20
10 -14 -4 -19 -11 -15 -23 3 -10 -1 -25 -9 -33 -8 -8 -15 -23 -15 -33 0 -11
-2 -45 -5 -76 l-4 -57 51 -38 c29 -21 64 -43 78 -49 38 -17 59 -71 59 -151 0
-37 -3 -85 -6 -106 -6 -31 -10 -37 -32 -37 -14 0 -32 -7 -41 -15 -35 -33 -95
-75 -108 -75 -7 0 -24 -7 -37 -15 -23 -16 -24 -15 -31 31 -4 26 -5 166 -4 310
2 145 0 266 -3 269 -8 9 -116 -51 -161 -90 -21 -18 -65 -47 -98 -65 -58 -31
-61 -34 -55 -64 3 -17 13 -78 21 -136 9 -58 36 -226 60 -375 24 -148 47 -300
50 -337 4 -37 13 -75 20 -84 13 -18 60 -21 136 -9 34 6 74 -5 159 -43 19 -9
78 -19 130 -24 52 -4 131 -14 175 -22 264 -47 255 -48 234 23 -7 23 -10 44 -6
47 10 10 27 -6 27 -26 0 -55 49 -100 110 -100 16 0 30 -5 30 -11 0 -12 -39 -9
-117 7 -29 6 -34 3 -43 -21 -10 -26 -12 -27 -63 -20 -65 9 -86 23 -61 42 17
12 16 13 -4 13 -12 0 -22 -6 -22 -12 0 -18 -142 -18 -148 0 -2 7 1 19 7 26 15
18 6 24 -25 18 -19 -3 -22 -7 -12 -13 9 -6 6 -9 -11 -9 -14 0 -32 -7 -41 -15
-24 -22 -65 -5 -78 34 -13 37 -49 46 -179 45 -51 -1 -93 2 -93 6 0 10 -89 34
-97 26 -12 -12 69 -702 84 -717 5 -5 25 -6 46 -2 31 5 37 10 37 29 0 15 6 24
16 24 8 0 12 -5 9 -10 -3 -5 -1 -10 5 -10 6 0 8 -4 5 -10 -10 -16 94 -12 110
4 17 17 157 14 163 -3 2 -6 23 -11 46 -11 24 0 67 -5 96 -10 50 -10 55 -9 80
15 21 20 31 23 55 17 26 -7 30 -14 33 -46 3 -30 -2 -42 -23 -62 l-26 -24 22
-38 c38 -63 106 -156 131 -179 24 -23 24 -23 178 -23 8 0 56 -4 105 -10 50 -5
190 -19 312 -30 123 -11 251 -24 285 -29 35 -5 131 -13 213 -16 83 -4 223 -13
313 -21 206 -18 192 -19 192 11 0 19 -5 25 -22 26 -103 3 -185 13 -250 31
l-78 20 0 74 c0 41 3 74 8 74 4 0 12 10 17 22 6 12 17 24 25 28 8 4 25 12 38
18 12 7 32 17 45 24 12 6 28 14 36 18 32 14 23 30 -18 30 -50 0 -91 35 -115
98 -21 55 -20 67 5 91 14 13 19 26 14 40 -9 29 24 60 70 68 34 5 37 4 31 -14
-7 -21 13 -39 79 -73 21 -11 33 -26 39 -53 9 -35 12 -38 40 -35 l31 3 3 1012
c2 998 2 1013 -17 1013 -11 0 -23 -5 -26 -10 -8 -13 -40 -13 -63 0 -55 31
-255 25 -297 -10 -8 -7 -18 -10 -21 -7 -9 8 -19 303 -34 1002 -5 253 -12 487
-15 520 -3 33 -10 481 -15 995 -6 514 -12 1016 -15 1115 -2 99 -7 378 -11 620
-3 242 -8 478 -10 525 -2 47 -3 94 -2 105 5 58 -1 652 -7 723 l-7 82 -114 0
-114 0 -1 -32 -1 -33 -10 33 c-9 26 -16 32 -40 32 -33 0 -33 -6 3 -89 10 -24
19 -51 19 -60 1 -9 7 -2 15 14 l13 30 1 -33 c1 -18 -5 -41 -11 -52 -10 -16
-10 -24 0 -40 13 -21 7 -120 -9 -152 -6 -10 -5 -19 2 -23 6 -5 10 -58 9 -148
-1 -78 2 -159 6 -179 5 -28 3 -39 -8 -43 -20 -8 -160 79 -199 123 -85 96 -170
351 -168 503 0 36 -4 84 -11 107 -9 35 -15 42 -35 42 -23 0 -25 -4 -25 -44z
m149 -5211 c12 -21 36 -42 56 -51 20 -8 38 -21 42 -30 3 -8 2 -49 -2 -90 l-7
-76 -29 6 c-34 7 -75 34 -85 56 -8 20 -16 199 -8 211 8 14 10 12 33 -26z
m-720 -270 c26 -82 43 -231 39 -330 -3 -64 -5 -70 -23 -66 -11 2 -44 3 -73 2
-86 -2 -92 4 -92 112 0 157 34 303 83 355 27 29 38 18 66 -73z m365 -150 c23
-47 46 -158 46 -219 0 -46 -1 -48 -25 -44 -19 4 -25 1 -25 -12 0 -13 6 -16 24
-13 28 6 34 -12 28 -73 -4 -39 -5 -41 -39 -42 l-36 -1 6 53 5 53 -41 26 c-23
15 -48 27 -57 27 -36 0 -54 126 -30 212 12 42 19 48 63 55 18 3 34 7 36 9 13
12 31 0 45 -31z m372 -203 c22 -21 47 -52 57 -69 18 -32 24 -119 8 -108 -5 3
-12 1 -16 -4 -13 -22 -131 22 -139 53 -14 51 -6 119 16 143 12 13 25 23 29 23
3 0 24 -17 45 -38z m-1166 -622 c0 -11 9 -28 20 -37 11 -10 20 -23 20 -29 0
-6 7 -17 15 -24 17 -14 20 -72 5 -100 -12 -22 -85 -37 -104 -21 -7 6 -24 10
-37 9 -23 -3 -24 -1 -26 77 -3 101 2 125 27 125 11 0 20 5 20 10 0 6 14 10 30
10 23 0 30 -4 30 -20z"/>
<path d="M8530 9560 c-6 -11 -17 -20 -25 -20 -9 0 -16 -10 -16 -22 -1 -13 -2
-39 -3 -58 -1 -19 3 -49 10 -67 7 -17 18 -57 24 -90 16 -78 23 -84 87 -82 31
2 59 -3 66 -10 6 -6 14 -36 17 -66 l5 -54 34 31 c30 27 34 38 41 101 11 97 4
213 -16 262 -33 83 -38 90 -72 93 -30 3 -41 -6 -25 -22 4 -4 17 -36 29 -72 18
-55 18 -64 5 -60 -9 3 -34 8 -56 12 -73 12 -78 18 -71 85 5 48 3 59 -9 59 -8
0 -19 -9 -25 -20z"/>
<path d="M8584 9080 c15 -34 35 -60 51 -68 14 -7 37 -31 50 -52 18 -28 36 -42
65 -51 22 -7 43 -10 46 -6 8 8 11 207 3 212 -3 3 -25 -16 -47 -40 -22 -25 -45
-45 -51 -45 -15 0 -82 45 -114 77 l-28 28 25 -55z"/>
<path d="M5600 8062 c0 -6 9 -13 19 -17 16 -5 36 -43 28 -52 -2 -1 -33 3 -69
9 -50 9 -83 9 -130 0 -35 -6 -82 -14 -105 -17 -27 -4 -55 -19 -82 -41 -28 -24
-47 -33 -60 -29 -26 8 -34 -19 -13 -45 15 -18 32 -21 127 -26 78 -4 119 -2
140 7 17 7 85 27 152 44 68 17 125 34 128 37 3 2 8 22 11 44 5 36 3 40 -25 52
-16 7 -42 17 -58 21 -15 5 -36 12 -45 16 -11 4 -18 3 -18 -3z"/>
<path d="M7000 8000 c0 -23 38 -88 64 -110 10 -7 31 -34 48 -59 77 -114 184
-183 288 -184 33 0 63 3 66 6 4 3 -6 17 -21 30 -27 23 -27 24 -16 77 6 29 8
57 4 61 -19 16 -171 93 -232 116 -36 13 -94 38 -129 54 -35 16 -65 29 -68 29
-2 0 -4 -9 -4 -20z"/>
<path d="M1100 8000 c-25 -4 -119 -20 -210 -35 -91 -15 -203 -33 -250 -40 -47
-7 -112 -18 -145 -24 -175 -31 -387 -61 -438 -61 l-57 0 0 -500 0 -500 24 0
c14 0 96 9 183 21 98 13 179 18 213 14 30 -3 84 -6 120 -6 35 1 98 -6 140 -15
41 -10 86 -18 100 -19 18 -1 30 -12 43 -38 18 -40 26 -44 45 -25 7 7 12 9 12
4 0 -4 7 0 16 8 8 9 26 16 40 16 13 0 24 4 24 10 0 5 11 12 25 16 13 3 29 12
36 20 8 10 23 12 50 8 48 -8 65 5 79 58 15 52 29 352 36 735 5 281 4 314 -11
337 -10 14 -20 25 -24 25 -3 -1 -26 -5 -51 -9z"/>
<path d="M6145 7960 c-3 -11 -13 -20 -21 -20 -16 0 -16 4 -15 -293 0 -113 2
-119 28 -152 28 -35 52 -45 54 -22 2 20 5 31 12 47 3 8 7 29 9 45 3 25 7 30
28 27 14 -1 27 -7 28 -12 2 -6 8 -8 13 -4 12 7 29 -39 29 -80 0 -21 -8 -40
-24 -55 l-24 -23 24 -47 c19 -36 37 -54 78 -76 44 -24 60 -40 87 -89 18 -34
60 -103 92 -154 69 -108 67 -120 -13 -103 -28 6 -70 11 -92 11 -49 0 -304 63
-367 91 -57 25 -61 24 -101 -11 -18 -16 -42 -32 -52 -36 -22 -6 -24 -24 -3
-24 8 0 44 11 80 24 35 14 67 21 70 16 15 -24 -200 -214 -336 -295 -119 -71
-150 -101 -207 -199 -71 -122 -119 -163 -137 -118 -26 62 -65 190 -65 210 0
15 7 26 20 29 11 3 20 9 20 14 0 5 8 9 18 9 28 0 -101 112 -228 198 -63 42
-143 101 -178 131 -59 50 -63 56 -60 90 l3 36 -155 2 c-86 1 -144 -2 -130 -6
40 -13 152 -71 187 -97 39 -29 118 -158 110 -178 -6 -16 -19 -19 -172 -36
-117 -13 -211 -37 -315 -79 -66 -27 -76 -29 -96 -16 -30 20 -94 151 -101 206
-8 67 1 92 44 122 36 25 152 68 221 82 44 9 40 20 -14 35 -41 12 -54 11 -142
-14 -53 -14 -149 -38 -212 -52 -150 -33 -147 -32 -153 -54 -3 -12 -14 -20 -25
-20 -12 0 -24 -4 -27 -10 -3 -5 -13 -10 -22 -10 -8 0 -26 -9 -40 -20 -14 -11
-35 -20 -47 -20 -12 0 -26 -4 -32 -9 -15 -14 -146 -51 -184 -51 -19 -1 -51 2
-70 5 -47 9 -90 -9 -90 -35 0 -12 -8 -35 -17 -53 -9 -18 -16 -35 -15 -39 1 -4
-9 -15 -23 -24 -14 -9 -23 -20 -20 -24 2 -4 -4 -15 -15 -25 -11 -10 -20 -24
-20 -32 0 -8 -4 -12 -10 -8 -5 3 -17 -6 -26 -20 -9 -14 -22 -25 -29 -25 -6 0
-20 -9 -30 -20 -10 -11 -23 -20 -30 -20 -7 0 -20 -9 -30 -20 -10 -12 -25 -18
-33 -15 -8 3 -24 -4 -34 -15 -12 -13 -27 -19 -38 -15 -10 3 -21 1 -25 -5 -4
-7 -18 -9 -31 -6 -13 4 -32 1 -43 -6 -15 -9 -23 -9 -34 1 -11 8 -17 9 -22 1
-4 -6 -22 -8 -43 -5 -20 3 -46 7 -57 9 -47 6 -107 28 -126 47 -26 26 -24 66 4
90 21 17 21 18 2 19 -18 0 -144 -38 -203 -61 -30 -12 -29 -49 9 -345 21 -162
28 -258 24 -299 -4 -45 0 -80 16 -140 43 -163 110 -630 93 -656 -2 -4 3 -56
11 -115 26 -183 36 -326 54 -799 13 -325 18 -395 41 -605 24 -217 25 -311 3
-403 -29 -118 -24 -361 11 -562 15 -88 40 -249 56 -358 l29 -197 -68 -268
c-37 -147 -77 -285 -88 -307 -12 -22 -26 -60 -33 -85 -7 -25 -15 -47 -19 -50
-4 -3 -15 -40 -25 -84 -28 -122 -36 -147 -46 -141 -4 3 -10 0 -12 -7 -3 -9
-209 -12 -914 -10 -500 2 -942 0 -981 -4 -81 -7 -91 -20 -53 -64 l20 -23 392
-4 c216 -2 449 -6 518 -8 69 -3 145 -4 170 -4 25 1 52 1 60 0 8 -1 76 -5 150
-10 146 -10 192 -16 228 -34 17 -8 41 -8 94 1 42 7 74 9 77 4 3 -5 43 -9 88
-8 61 1 84 -3 88 -12 8 -20 6 -24 -7 -16 -8 5 -9 2 -5 -10 4 -10 1 -19 -8 -22
-8 -4 -13 -10 -10 -14 3 -5 -48 -9 -112 -10 -98 -2 -973 0 -1038 2 -88 3 -657
-17 -660 -23 -8 -13 5 -34 27 -44 12 -6 26 -19 32 -30 17 -30 37 -42 62 -37
27 5 33 -14 6 -21 -9 -3 -3 -5 15 -6 47 -2 59 -27 17 -35 -11 -2 -35 -6 -55
-10 -62 -11 -66 -29 -18 -68 41 -33 77 -92 97 -158 26 -85 40 -112 70 -130 22
-14 34 -31 42 -62 6 -24 16 -53 22 -65 11 -23 28 -31 28 -14 0 15 49 19 68 5
15 -10 26 -11 49 -2 33 12 68 5 58 -12 -15 -24 16 -38 88 -39 40 -1 96 -3 125
-4 28 -2 52 1 52 5 0 5 8 5 18 0 19 -11 140 -9 189 2 22 5 33 4 33 -3 0 -6 18
-11 40 -11 22 0 40 5 40 10 0 17 27 11 32 -8 5 -18 33 -20 396 -22 39 0 54 -4
59 -16 3 -9 0 -20 -8 -25 -8 -4 -14 -16 -14 -26 0 -15 -10 -21 -61 -38 -1 0
-5 -11 -9 -25 -7 -23 -7 -23 10 -7 14 15 20 15 33 5 12 -11 409 -14 2039 -16
1928 -2 2024 -1 2019 15 -3 10 -8 38 -11 62 -3 25 -9 61 -14 80 -20 75 -34
180 -28 208 32 151 91 384 105 413 35 76 89 158 189 291 97 129 112 159 79
159 -22 0 -67 27 -82 49 -17 24 -49 29 -40 6 10 -27 -42 -18 -60 10 -22 34
-44 17 -39 -31 3 -38 -2 -42 -21 -16 -16 20 -18 52 -4 52 6 0 10 9 10 19 0 11
6 21 13 24 6 2 9 8 5 12 -4 4 -30 -1 -58 -10 -75 -25 -118 -16 -260 54 -234
115 -287 146 -362 211 -41 36 -102 84 -135 108 -121 86 -170 147 -270 334
-114 215 -164 346 -165 439 0 48 4 54 30 40 27 -14 48 7 24 25 -15 12 -13 13
17 14 26 0 32 -3 27 -16 -4 -11 -2 -15 8 -11 8 3 13 -1 12 -11 -1 -10 10 -18
31 -22 25 -6 30 -4 26 7 -4 10 10 5 37 -12 32 -20 41 -23 37 -11 -4 9 0 24 9
34 30 33 65 95 71 123 6 32 19 38 26 12 3 -12 5 -8 6 9 1 21 5 25 21 21 17 -4
20 -14 20 -58 0 -73 -10 -120 -22 -103 -6 8 -7 2 -3 -19 5 -24 1 -37 -14 -52
-12 -12 -21 -25 -21 -31 0 -5 -4 -10 -10 -10 -5 0 -10 5 -10 10 0 6 -7 10 -15
10 -17 0 -20 -16 -4 -25 5 -4 14 -18 19 -31 12 -32 26 -30 38 3 9 25 11 22 11
-25 1 -49 7 -63 77 -170 42 -64 90 -137 107 -162 17 -25 46 -69 65 -97 l35
-53 76 0 c114 -1 315 -18 411 -35 180 -33 189 -35 210 -62 20 -25 26 -75 14
-108 -5 -13 -10 -10 -25 14 -41 68 -109 81 -307 61 -94 -10 -108 -9 -203 15
-56 14 -104 24 -107 21 -7 -8 27 -56 57 -82 14 -12 49 -44 78 -71 55 -52 95
-69 235 -97 95 -20 135 -20 171 -2 15 8 27 11 27 7 0 -12 -113 -61 -140 -61
-13 0 -20 -5 -18 -12 7 -23 72 -48 123 -48 31 0 73 -10 110 -26 33 -14 87 -34
120 -44 33 -9 66 -19 73 -21 8 -2 43 39 86 101 89 131 238 363 262 410 19 39
19 40 13 485 l-4 260 -29 50 c-57 99 -59 106 -65 225 -6 108 -8 119 -33 149
-16 18 -28 39 -28 46 0 22 18 27 29 8 22 -39 4 56 -24 122 -7 17 -21 80 -30
140 -23 150 -24 155 -33 155 -4 0 -46 -36 -92 -80 -47 -44 -101 -87 -120 -97
-19 -10 -39 -23 -45 -29 -5 -6 -37 -26 -70 -44 -33 -19 -85 -55 -116 -82 -31
-26 -63 -48 -71 -48 -8 0 -34 -27 -57 -60 -70 -100 -94 -114 -106 -59 -4 17
-13 42 -21 57 -8 15 -14 34 -14 42 0 19 -36 124 -56 162 -15 29 -20 30 -89 11
-16 -5 -18 -3 -9 8 7 8 15 29 19 47 4 18 15 38 26 45 31 20 22 27 -34 27 -70
0 -164 19 -178 36 -14 18 7 19 48 3 19 -7 29 -7 31 0 2 6 26 11 53 11 27 0 49
4 49 9 0 15 33 18 59 4 35 -17 51 0 51 52 0 51 -7 54 -95 42 -98 -13 -179 -16
-197 -6 -10 5 -18 5 -21 -1 -3 -6 -4 -5 -3 2 1 7 22 16 47 19 24 3 42 7 39 8
-3 1 -81 3 -174 6 -93 3 -174 9 -180 14 -6 5 -26 9 -44 9 -18 -1 -28 -4 -22
-8 21 -13 -3 -17 -55 -11 -40 5 -49 10 -47 24 2 13 -4 17 -31 17 -18 0 -38 5
-44 11 -7 7 -13 7 -17 1 -3 -6 -2 -13 4 -17 18 -11 11 -22 -12 -20 -13 1 -29
-2 -36 -8 -9 -7 -26 -4 -57 12 -46 23 -132 49 -202 61 -35 5 -43 4 -43 -8 0
-9 -3 -12 -7 -8 -4 4 -7 23 -8 44 0 27 -5 38 -18 40 -12 3 -17 -3 -17 -22 0
-14 5 -26 12 -26 6 0 9 -3 6 -6 -4 -3 -18 2 -32 11 -26 17 -26 17 -26 -8 0
-36 -35 -58 -81 -51 -22 4 -39 2 -43 -5 -7 -10 13 -15 66 -15 9 0 15 -3 13 -7
-3 -4 16 -14 42 -22 35 -12 52 -13 70 -4 17 7 27 7 35 -1 21 -21 -42 -25 -124
-8 -44 10 -86 20 -94 23 -22 8 -16 -21 6 -35 24 -15 18 -32 -11 -32 -23 0 -25
-23 -3 -41 13 -11 17 -10 25 4 14 24 66 23 74 -2 6 -20 -3 -51 -15 -51 -4 0
-13 7 -20 15 -7 8 -19 15 -28 15 -20 0 15 -38 69 -76 43 -29 51 -54 18 -54
-24 0 -56 15 -84 40 -11 10 -31 20 -45 22 -14 1 -27 5 -30 8 -3 3 -20 10 -37
17 -31 11 -32 10 -20 -9 46 -74 108 -182 134 -231 17 -31 50 -48 80 -41 12 4
26 -5 41 -25 12 -16 18 -32 14 -34 -4 -2 -46 -5 -94 -6 -78 -2 -88 0 -107 20
-12 13 -21 28 -21 34 0 6 -12 28 -27 50 -15 22 -36 58 -48 80 -21 43 -47 53
-53 20 -3 -11 5 -27 20 -40 25 -21 65 -101 55 -111 -14 -14 -56 14 -134 89
-81 77 -123 137 -123 172 0 13 -8 15 -42 10 -24 -4 -50 -13 -59 -21 -8 -8 -26
-14 -38 -14 -28 0 -178 86 -191 110 -16 30 -12 72 10 108 l21 34 -33 -7 c-18
-4 -53 -21 -77 -37 -50 -33 -56 -33 -171 6 -41 14 -86 28 -100 31 -47 9 -107
132 -176 365 -60 203 -63 216 -70 335 -6 107 -6 115 16 144 19 28 23 51 31
189 11 185 35 400 49 437 6 15 15 23 21 19 11 -6 182 -261 268 -399 24 -39 56
-88 71 -110 32 -46 60 -110 60 -135 0 -10 11 -22 24 -27 26 -9 47 -33 146
-173 36 -51 80 -108 98 -127 44 -46 53 -73 41 -117 -8 -31 -7 -40 12 -66 13
-16 31 -30 41 -30 13 0 26 -15 40 -47 31 -72 82 -153 93 -149 6 1 9 19 7 39
-2 21 1 37 7 37 5 0 19 19 30 43 53 110 184 317 202 317 5 0 7 5 4 10 -3 6 1
10 9 10 10 0 16 -9 16 -22 0 -27 100 -238 112 -238 5 0 37 13 71 29 34 15 86
34 115 41 51 12 54 14 47 39 -4 14 -10 51 -13 81 -6 47 -10 55 -32 60 -27 7
-29 33 -4 61 8 8 14 20 14 25 0 31 134 46 180 19 14 -8 37 -19 53 -26 19 -8
27 -18 27 -35 0 -16 17 -42 48 -73 27 -27 56 -65 66 -84 9 -20 20 -38 24 -40
4 -3 40 -8 80 -11 53 -5 72 -4 72 5 0 7 -16 46 -36 88 -20 42 -43 90 -49 106
-18 42 -40 94 -58 135 -9 19 -24 55 -35 80 -11 25 -31 73 -46 106 -14 34 -26
67 -26 74 0 8 -7 21 -15 30 -20 22 -23 61 -5 70 8 4 26 13 40 20 120 65 150
80 160 80 7 0 23 9 37 20 14 11 36 20 50 20 13 0 26 7 29 15 4 8 15 15 26 15
11 0 31 9 45 20 14 11 33 20 42 20 10 0 22 5 29 12 12 12 76 38 101 41 13 2
61 -74 61 -96 0 -10 30 -81 51 -119 5 -10 9 -25 9 -34 0 -9 9 -27 20 -41 11
-14 20 -36 20 -49 0 -21 6 -35 51 -126 11 -20 19 -43 19 -50 1 -7 9 -31 20
-53 11 -22 19 -45 20 -52 0 -6 6 -24 14 -40 31 -63 39 -114 36 -228 -1 -33
-46 -80 -99 -106 -28 -13 -50 -27 -48 -32 3 -11 119 -57 128 -51 5 3 36 45 70
94 65 96 103 127 171 138 38 7 43 11 51 42 18 71 29 89 59 99 17 6 37 11 44
11 15 0 41 20 77 59 12 13 39 42 60 64 31 34 37 47 37 86 0 58 34 210 55 251
14 28 15 45 4 148 -15 148 -7 299 25 472 14 74 27 193 30 265 9 202 41 391 88
530 22 66 47 140 55 165 67 206 114 358 133 425 12 44 38 128 57 188 30 89 39
108 59 113 39 10 93 -16 144 -69 27 -28 52 -49 55 -45 8 8 -24 186 -41 226
-10 24 -19 32 -30 28 -9 -3 -22 -6 -30 -6 -8 0 -14 -6 -14 -12 0 -20 -52 -41
-61 -26 -4 7 -6 15 -3 19 2 4 -3 9 -11 13 -15 5 -31 -9 -18 -17 5 -2 1 -2 -7
0 -8 3 -30 7 -47 10 -18 3 -33 9 -33 13 0 11 -70 29 -144 36 -38 3 -93 12
-123 20 -30 8 -70 14 -89 14 -35 0 -128 23 -151 38 -8 5 -9 21 -3 52 8 48 6
332 -3 346 -3 5 1 24 9 42 16 40 20 39 141 -19 l82 -39 10 -53 c8 -34 8 -94 3
-176 -11 -160 -6 -185 35 -189 29 -3 31 -1 38 36 3 21 6 58 5 83 -3 167 0 249
10 249 5 0 10 -16 10 -37 0 -30 7 -42 40 -70 49 -42 59 -77 49 -173 -4 -42 -3
-83 2 -92 13 -24 49 -32 150 -33 115 0 121 6 118 104 -4 95 13 141 52 141 23
0 89 -20 154 -45 14 -6 17 -5 10 3 -5 6 -107 54 -225 107 -118 53 -234 105
-258 116 -23 10 -52 19 -64 19 -12 0 -31 9 -42 19 -12 11 -61 37 -111 59 -49
22 -146 65 -215 95 -69 31 -166 72 -215 91 -50 19 -97 37 -107 41 -12 5 -18
-1 -23 -26 -5 -23 -10 -28 -16 -18 -5 8 -9 25 -9 38 0 44 -63 70 -75 31z
m-2071 -1013 c9 -14 7 -20 -6 -28 -24 -13 -23 -33 1 -26 14 3 18 1 14 -9 -4
-10 3 -14 21 -14 22 0 36 -15 86 -91 33 -50 60 -96 60 -101 0 -6 -9 -8 -20 -5
-11 3 -23 1 -26 -4 -3 -5 2 -9 10 -9 8 0 17 -4 20 -9 7 -11 -36 -61 -52 -61
-7 0 -12 -6 -12 -14 0 -7 -12 -22 -27 -32 -16 -10 -36 -28 -46 -40 -10 -13
-26 -26 -37 -29 -11 -4 -20 -11 -20 -17 0 -16 -162 -178 -177 -178 -22 0 -65
75 -61 107 2 19 -4 34 -17 45 -20 18 -20 18 3 24 12 3 22 12 22 20 0 23 -21
27 -43 6 -25 -23 -41 -19 -79 16 -37 34 -35 49 7 66 46 20 44 28 -5 20 -32 -5
-47 -2 -75 17 -46 32 -46 61 0 89 19 12 35 26 35 31 0 19 56 61 120 91 36 17
68 36 73 43 4 8 24 24 45 36 20 13 42 29 47 36 11 14 92 42 114 40 8 -1 19
-10 25 -20z m781 -226 c174 -36 232 -88 275 -241 6 -25 16 -55 20 -66 5 -12
11 -42 15 -66 8 -50 20 -41 -110 -88 -33 -12 -75 -28 -93 -36 -18 -8 -41 -14
-52 -14 -10 0 -22 -4 -25 -10 -3 -5 -17 -10 -30 -10 -13 0 -27 -4 -30 -10 -3
-5 -19 -10 -35 -10 -16 0 -32 -4 -35 -10 -3 -5 -16 -10 -29 -10 -12 0 -26 -4
-31 -8 -6 -4 -27 -14 -49 -21 -37 -13 -39 -12 -62 15 -13 16 -23 32 -24 37 0
4 -9 29 -21 55 -79 176 -87 204 -82 257 3 22 11 54 19 72 8 17 14 34 14 37 0
18 82 89 133 114 50 25 68 29 120 27 34 -2 85 -8 112 -14z m795 -266 c16 -19
22 -86 8 -102 -34 -41 -139 -58 -157 -25 -12 22 -8 99 5 112 10 10 75 27 110
29 12 1 27 -6 34 -14z m-2112 -39 c35 -24 88 -73 118 -109 52 -63 55 -70 61
-136 3 -38 2 -78 -2 -88 -4 -10 -10 -31 -11 -48 -2 -16 -5 -41 -7 -54 -5 -33
-89 -91 -140 -96 -10 -2 -29 -8 -42 -15 -26 -14 -80 -6 -69 11 3 6 16 15 28
20 19 9 19 9 -4 3 -72 -17 -150 -10 -158 15 -4 11 8 13 52 9 56 -5 57 -4 54
21 -3 25 -5 26 -65 24 l-62 -3 -12 54 c-10 48 -10 56 7 80 11 14 24 26 30 26
7 0 14 6 17 14 9 22 -26 105 -51 122 -17 12 -21 21 -16 42 4 15 13 32 20 38
19 16 17 24 -5 24 -24 0 -61 -45 -61 -73 0 -25 28 -57 50 -57 9 0 21 -5 27
-11 20 -20 3 -39 -33 -39 -25 0 -34 -4 -35 -17 0 -19 -10 -2 -35 67 -32 83 -3
142 90 185 62 29 77 32 141 34 44 1 58 -5 113 -43z m801 -107 c32 -69 67 -140
79 -157 12 -16 22 -32 22 -34 0 -2 -44 -49 -97 -104 -62 -62 -110 -122 -131
-162 -18 -34 -37 -62 -42 -62 -14 0 -64 104 -100 210 -27 78 -31 104 -27 152
12 133 126 293 204 286 34 -3 36 -6 92 -129z m844 -249 c65 -24 120 -68 143
-111 35 -68 33 -172 -4 -262 -7 -16 -12 -31 -12 -34 0 -16 -89 -113 -117 -126
-45 -23 -140 -31 -193 -17 -25 6 -56 14 -70 17 -26 6 -125 75 -148 102 -39 48
-65 99 -67 135 -2 23 -6 53 -10 69 -11 43 28 136 78 185 35 34 52 43 92 48 28
4 57 11 65 16 28 16 181 3 243 -22z m825 -137 c-4 -21 38 -31 55 -14 15 15 47
14 48 -1 1 -7 3 -20 4 -28 1 -8 3 -25 4 -37 1 -23 26 -53 43 -53 5 0 8 7 5 15
-4 8 -2 17 4 20 5 4 8 18 7 33 -4 35 23 40 58 13 15 -12 35 -21 46 -21 26 0
35 -30 15 -45 -10 -7 -17 -19 -17 -28 0 -8 -8 -17 -17 -19 -16 -3 -15 -6 4
-16 24 -13 46 -6 87 31 28 24 48 22 45 -5 -4 -39 12 -78 31 -78 10 0 20 8 23
18 3 14 6 12 16 -9 11 -22 10 -30 -6 -57 -27 -43 -73 -77 -100 -74 -32 5 -31
-26 1 -34 34 -8 35 -19 16 -99 -16 -67 -17 -69 -30 -45 -7 14 -12 27 -11 30 1
2 -2 6 -8 8 -11 4 -31 -37 -31 -63 0 -7 14 -18 30 -24 65 -22 24 -110 -73
-157 -47 -22 -141 -36 -108 -15 17 11 7 41 -14 41 -9 0 -15 -9 -15 -25 0 -30
-1 -30 -50 -5 -48 25 -53 25 -46 2 9 -28 -38 -75 -67 -67 -49 15 -74 78 -42
105 22 18 19 26 -15 40 -43 18 -54 34 -38 60 11 17 11 22 -2 30 -8 5 -22 7
-31 5 -40 -13 -78 166 -48 222 13 23 21 25 61 8 22 -9 56 51 39 68 -8 8 -14 8
-23 -1 -7 -7 -17 -12 -22 -12 -6 0 -4 6 4 13 18 15 38 45 46 69 3 9 13 19 21
23 18 6 59 -25 44 -34 -4 -3 -12 -20 -15 -37 -9 -42 14 -51 45 -18 28 30 42
30 61 3 13 -20 15 -21 31 -5 9 10 17 20 17 24 -1 17 -54 65 -75 67 -12 2 -35
11 -50 21 -26 17 -27 21 -23 80 2 34 10 69 17 78 19 22 53 21 49 -1z m-1491
-41 c17 -20 34 -48 38 -62 4 -14 11 -27 14 -30 4 -3 20 -27 35 -55 16 -27 36
-58 45 -68 9 -11 16 -39 17 -68 1 -41 -2 -49 -17 -49 -10 0 -20 -4 -23 -9 -7
-11 -88 -51 -104 -51 -13 0 -89 -73 -114 -110 -16 -25 -16 -25 -35 -5 -11 11
-32 54 -48 95 -16 41 -35 85 -43 97 -7 12 -16 58 -19 103 -6 77 -5 81 21 105
14 13 26 30 26 38 0 33 97 93 171 106 3 1 19 -16 36 -37z m-540 -112 c17 -17
36 -43 44 -58 7 -15 21 -38 30 -52 126 -196 149 -235 149 -260 0 -23 -51 -81
-110 -127 -55 -42 -159 -142 -202 -194 -35 -43 -62 -49 -78 -20 -5 11 -16 26
-24 33 -14 14 -49 78 -43 78 2 0 18 -20 36 -45 18 -25 40 -45 50 -45 10 0 47
31 83 70 36 38 88 87 116 107 67 51 152 130 152 142 0 5 -11 22 -23 38 -32 38
-121 174 -131 198 -15 41 -82 135 -98 141 -24 7 -23 24 1 24 10 0 32 -14 48
-30z m-99 9 c-2 -5 -45 -24 -96 -41 -86 -30 -95 -35 -136 -87 -62 -80 -89
-136 -81 -172 5 -22 3 -29 -9 -29 -12 0 -16 11 -16 49 0 40 7 59 45 116 25 38
48 71 53 74 5 3 11 13 14 22 12 32 237 100 226 68z m1008 -384 c15 -30 31 -55
35 -55 11 0 90 -162 93 -192 2 -13 7 -31 11 -39 5 -8 -2 -5 -14 6 -23 20 -23
20 -20 0 2 -11 9 -23 14 -27 6 -4 -2 -8 -16 -8 -16 0 -26 -6 -26 -15 0 -8 7
-15 16 -15 25 0 0 -15 -49 -30 -25 -8 -69 -24 -99 -37 -30 -13 -56 -21 -59
-19 -8 9 10 26 28 26 10 0 20 7 24 15 4 12 -1 15 -27 11 -58 -8 -76 -17 -70
-34 5 -11 3 -13 -7 -7 -8 5 -11 4 -7 -3 4 -5 16 -8 27 -5 11 3 20 1 20 -5 0
-6 -15 -14 -32 -17 -18 -4 -45 -13 -59 -21 -22 -11 -29 -11 -46 1 -19 13 -21
12 -27 -15 -3 -17 -10 -30 -16 -30 -6 0 -8 5 -4 11 4 8 -1 9 -16 4 -15 -5 -20
-3 -16 3 3 6 2 13 -3 16 -5 3 -11 -3 -14 -14 -3 -11 -10 -20 -16 -20 -9 0 -9
5 -1 21 16 30 3 36 -20 11 -29 -30 -37 -28 -51 16 -6 20 -16 42 -21 49 -14 17
-20 151 -8 158 6 3 10 17 10 31 0 13 5 24 10 24 6 0 17 14 24 31 15 36 94 104
133 114 15 3 38 14 52 24 47 33 110 61 138 61 15 0 37 7 47 15 11 8 23 15 28
15 4 0 20 -25 34 -55z m611 -51 c82 -150 124 -249 117 -269 -3 -8 -21 -24 -39
-35 -32 -20 -85 -86 -85 -107 0 -7 -22 -9 -62 -6 -50 4 -71 0 -102 -16 -22
-11 -40 -20 -41 -18 0 1 -10 22 -22 47 -64 136 -133 298 -133 313 0 12 127
130 150 139 29 12 150 37 165 34 5 -2 29 -38 52 -82z m-1319 -227 c12 -14 82
-11 82 4 0 19 38 8 45 -13 27 -91 22 -112 -16 -64 -23 29 -85 32 -119 6 -36
-27 -21 -41 22 -20 32 15 39 16 49 4 9 -11 8 -14 -7 -14 -11 0 -32 -11 -48
-25 -16 -14 -37 -25 -46 -25 -10 0 -20 -9 -23 -19 -3 -14 -11 -18 -26 -14 -20
5 -20 6 4 38 21 27 24 39 19 78 -4 25 -4 53 -1 61 8 19 50 21 65 3z m126 -219
c-3 -5 2 -18 11 -28 14 -16 16 -30 11 -70 -5 -34 -3 -50 5 -50 6 0 13 9 16 20
3 11 12 20 20 20 9 0 13 -6 10 -14 -3 -7 -1 -18 4 -23 11 -11 -7 -99 -24 -120
-5 -7 -6 -29 -3 -49 5 -26 2 -47 -14 -80 -21 -43 -40 -58 -40 -31 0 7 -7 22
-16 33 -14 18 -15 16 -11 -28 3 -30 1 -48 -6 -48 -6 0 -21 -10 -34 -22 -13
-12 -26 -18 -30 -14 -4 4 -8 39 -9 77 -2 59 -5 73 -23 85 -21 15 -30 64 -11
64 5 0 15 -9 22 -20 11 -17 48 -29 48 -15 0 2 -13 26 -29 53 -16 27 -31 58
-33 68 -4 21 -43 27 -43 6 0 -13 -23 -32 -38 -32 -26 0 -51 163 -29 197 4 6
21 15 37 19 27 6 28 5 17 -8 -9 -11 -9 -18 -3 -23 7 -4 7 -12 -1 -25 -9 -14
-9 -22 1 -34 7 -8 10 -24 6 -36 -9 -29 19 -26 39 5 20 30 20 35 1 35 -26 0
-16 24 31 70 43 42 46 43 40 18 -5 -21 -3 -28 8 -28 18 0 36 -30 36 -60 0 -13
5 -20 13 -18 21 8 19 36 -3 58 -19 19 -20 25 -10 51 10 23 15 27 26 18 8 -6
11 -16 8 -21z m681 -244 c19 -30 65 -148 65 -168 0 -8 -17 -19 -37 -26 -21 -6
-89 -27 -152 -48 -69 -22 -116 -33 -118 -27 -2 6 -21 41 -43 78 -21 37 -37 73
-34 80 11 29 100 76 209 112 90 30 90 30 110 -1z m-525 -8 c0 -8 13 -43 29
-78 16 -35 41 -97 55 -138 15 -41 37 -92 49 -113 21 -38 21 -39 3 -90 -10 -29
-47 -115 -83 -192 -36 -77 -74 -160 -85 -184 -18 -42 -20 -43 -32 -25 -13 18
-74 176 -91 234 -4 14 -21 53 -37 88 l-30 62 75 113 c40 61 79 121 85 133 13
24 35 147 33 182 0 13 5 22 14 22 8 0 15 -6 15 -14z m1198 -3060 c21 -13 62
-46 92 -73 l53 -49 -74 0 c-130 1 -219 -57 -377 -245 -35 -41 -66 -80 -70 -86
-8 -12 -143 -100 -324 -209 -70 -42 -135 -84 -145 -93 -10 -10 -25 -20 -33
-24 -8 -5 -35 -18 -60 -31 -40 -21 -45 -22 -49 -7 -2 9 -7 21 -12 27 -5 6 -7
18 -3 27 7 19 -31 33 -50 18 -13 -11 -26 -5 -26 12 0 5 7 7 15 3 9 -3 15 0 15
10 0 8 -7 17 -15 20 -9 4 -13 13 -10 24 4 12 -1 19 -17 23 -12 4 -19 9 -16 13
4 3 22 -3 41 -15 46 -28 141 -28 233 0 70 21 207 110 245 157 10 13 23 21 29
17 6 -4 9 -3 8 2 -5 14 55 86 167 199 61 61 136 141 168 177 57 65 137 127
164 127 7 0 31 -11 51 -24z"/>
<path d="M5860 5503 c0 -42 1 -87 3 -118 1 -13 9 -20 22 -20 15 0 20 7 20 28
-1 31 2 32 29 12 26 -20 50 -19 42 0 -4 12 1 14 27 10 18 -2 42 -7 55 -11 25
-7 31 10 6 20 -9 3 -14 16 -13 28 1 13 -2 36 -6 52 -7 27 -9 28 -21 11 -12
-16 -16 -16 -58 -2 -45 15 -46 15 -46 -4 0 -11 -5 -17 -10 -14 -6 4 -8 15 -5
26 5 15 1 19 -19 19 -23 0 -25 -4 -26 -37z"/>
<path d="M6020 5361 c0 -5 4 -21 10 -35 7 -19 6 -26 -3 -27 -6 0 2 -7 18 -14
17 -8 24 -14 18 -15 -16 0 -17 -36 -2 -46 6 -3 14 -2 18 4 3 6 15 10 26 9 12
-1 19 3 17 11 -2 10 4 11 19 7 18 -6 21 -4 16 9 -6 14 -3 16 13 11 29 -9 42 2
29 26 -8 15 -14 18 -24 9 -9 -8 -14 -7 -18 4 -11 29 -137 72 -137 47z"/>
<path d="M7565 7349 l50 -34 -3 -415 c-2 -398 -2 -415 16 -427 19 -11 20 -4
26 205 5 188 10 583 7 634 -1 17 -66 52 -120 65 -19 4 -12 -4 24 -28z"/>
<path d="M8190 7069 c8 -5 38 -21 67 -34 86 -39 84 -26 76 -459 -6 -348 -5
-376 11 -382 9 -4 18 -5 20 -3 2 2 6 185 8 405 l5 402 -87 41 c-82 39 -136 55
-100 30z"/>
<path d="M870 6658 c0 -11 -8 -18 -20 -18 -11 0 -20 5 -20 11 0 5 -4 7 -10 4
-5 -3 -10 -17 -10 -31 0 -18 -5 -24 -21 -24 -12 0 -38 -13 -58 -28 -20 -16
-51 -37 -68 -48 -36 -20 -38 -26 -22 -55 7 -14 16 -18 30 -14 11 4 19 2 19 -4
0 -21 35 -10 73 22 20 17 51 42 67 55 19 15 30 33 30 48 0 15 6 24 15 24 17 0
20 37 5 60 -8 13 -10 12 -10 -2z"/>
<path d="M1060 5959 c-19 -5 -76 -7 -127 -4 -59 4 -106 2 -132 -6 -29 -8 -47
-9 -70 -1 -29 10 -30 10 -21 -8 17 -31 31 -35 135 -36 55 -1 109 -3 120 -6 11
-3 45 1 75 8 66 16 120 17 154 4 32 -12 26 7 -10 33 -31 23 -78 29 -124 16z"/>
<path d="M575 5848 c-13 -29 -27 -72 -31 -95 -6 -39 -4 -44 27 -72 32 -30 33
-32 20 -63 -7 -18 -24 -67 -38 -108 -61 -185 5 -345 168 -406 70 -27 228 -24
304 6 66 25 152 77 175 105 9 11 0 8 -24 -9 -21 -14 -50 -26 -63 -26 -61 0
-163 86 -182 154 -12 47 2 99 36 125 14 12 52 30 84 42 32 12 60 28 64 37 3 8
4 15 3 16 -60 26 -255 125 -322 164 -92 53 -162 118 -172 160 -9 35 -23 26
-49 -30z"/>
<path d="M1089 5867 c-19 -12 -38 -36 -43 -52 -4 -17 -13 -39 -18 -49 -8 -15
-6 -22 6 -31 8 -7 22 -25 30 -40 14 -26 20 -29 59 -26 24 1 62 8 83 16 32 11
40 19 46 47 3 18 9 42 12 53 10 35 -67 105 -115 105 -14 0 -41 -10 -60 -23z
m116 -32 c52 -51 15 -135 -59 -135 -26 0 -40 7 -60 31 -30 35 -32 49 -11 89
17 32 27 38 73 39 22 1 41 -7 57 -24z"/>
<path d="M337 5791 c-51 -57 -70 -65 -109 -46 -47 22 -75 39 -96 59 -23 20
-45 13 -63 -20 -7 -14 -26 -36 -41 -49 -27 -23 -28 -26 -28 -127 0 -89 2 -105
18 -115 12 -7 24 -34 32 -75 32 -157 46 -194 74 -185 5 2 23 47 40 101 23 74
39 106 65 131 33 33 45 36 68 22 14 -9 14 -9 53 88 17 44 45 105 62 137 l30
56 -30 31 c-16 17 -32 31 -34 31 -3 0 -22 -18 -41 -39z"/>
<path d="M1363 5588 c-24 -25 -29 -38 -23 -53 16 -38 11 -91 -12 -120 -12 -15
-43 -72 -70 -126 -40 -81 -58 -107 -99 -139 -28 -22 -54 -40 -57 -40 -4 0 -13
-4 -20 -9 -12 -7 -11 -13 1 -37 8 -16 23 -71 32 -122 10 -55 26 -105 39 -125
22 -31 24 -32 91 -31 50 1 62 -2 45 -8 -13 -5 -47 -8 -74 -6 -44 3 -53 7 -72
35 -11 17 -26 60 -33 95 -16 87 -40 166 -51 173 -5 3 -43 -1 -84 -10 -122 -25
-183 -20 -289 21 -107 41 -150 45 -181 15 -18 -19 -21 -33 -21 -109 1 -157 44
-258 134 -309 124 -70 137 -88 202 -261 36 -97 63 -133 125 -162 35 -17 58
-21 102 -18 79 6 132 36 237 133 103 97 156 124 206 106 44 -15 95 -14 128 3
43 23 100 92 133 161 27 59 60 182 52 197 -3 3 -25 -5 -51 -20 -81 -45 -176
-30 -205 34 -8 17 -20 24 -42 25 -28 2 -29 2 -5 6 29 5 25 -23 45 300 8 120
-7 175 -56 211 -37 28 -53 60 -69 137 -19 88 -22 90 -58 53z"/>
<path d="M2000 5568 c-61 -46 -96 -114 -110 -213 -13 -93 -2 -193 30 -277 25
-65 35 -78 84 -112 82 -55 183 -21 234 80 94 185 -3 531 -155 551 -33 4 -45 0
-83 -29z m109 -13 c80 -41 136 -182 136 -340 0 -86 -4 -107 -25 -150 -46 -91
-109 -99 -159 -19 -45 70 -66 169 -66 314 0 137 10 175 55 197 31 16 26 16 59
-2z"/>
<path d="M1614 5506 c-40 -18 -104 -74 -104 -92 0 -20 24 -17 45 6 41 45 100
16 146 -71 19 -36 24 -64 27 -154 4 -123 -6 -165 -39 -165 -85 0 -154 -135
-98 -191 41 -41 111 -5 171 88 18 29 36 52 40 53 3 0 66 -26 140 -57 180 -77
260 -83 327 -27 36 30 39 52 10 83 l-21 23 -37 -36 c-71 -70 -127 -69 -291 2
-58 25 -107 47 -109 48 -1 2 4 31 13 66 40 160 -3 356 -90 413 -36 23 -92 28
-130 11z"/>
<path d="M1575 5226 c0 -50 4 -69 20 -86 20 -23 86 -60 105 -60 5 0 10 23 10
53 0 50 -2 53 -36 72 -19 10 -48 34 -64 52 -16 18 -31 33 -32 33 -2 0 -3 -29
-3 -64z"/>
<path d="M1990 4819 c-16 -16 -32 -39 -35 -50 -8 -23 -28 -25 -45 -4 -28 34
-92 13 -109 -36 -30 -86 77 -112 125 -30 17 28 42 40 56 25 3 -3 -3 -30 -13
-59 -10 -30 -19 -64 -19 -75 0 -24 33 -60 56 -60 14 0 14 1 0 16 -20 20 -20
58 0 117 18 53 50 68 39 18 -3 -16 -2 -32 3 -35 12 -7 66 100 57 114 -11 17
-25 11 -35 -15 -5 -14 -16 -25 -25 -25 -18 0 -18 -4 1 53 27 79 -3 103 -56 46z"/>
<path d="M2050 4244 c-198 -152 -484 -245 -705 -229 -49 3 -110 8 -135 11
l-45 6 -2 -39 c0 -21 -2 -81 -2 -135 -1 -53 -6 -118 -11 -145 -6 -26 -13 -133
-16 -236 -3 -104 -10 -200 -14 -215 l-8 -27 -1 25 c-1 20 -3 22 -11 10 -11
-18 -13 -93 -3 -141 7 -33 7 -33 14 -9 4 14 7 -29 7 -95 0 -90 -2 -111 -9 -85
-5 19 -6 55 -3 79 3 27 2 41 -4 37 -13 -8 -20 -128 -27 -428 -4 -200 -20 -436
-29 -445 -1 -2 -14 10 -29 25 -24 25 -28 41 -41 153 -23 196 -29 346 -18 429
8 50 8 98 1 145 -5 39 -11 133 -13 210 -5 177 -11 263 -19 272 -4 3 -44 0 -89
-7 -78 -12 -182 -10 -269 5 -26 5 -39 2 -48 -9 -8 -9 -22 -16 -32 -16 -10 0
-34 -8 -54 -17 -34 -16 -62 -15 -145 8 -23 6 -37 -108 -38 -300 0 -91 -5 -184
-9 -206 -5 -22 -5 -152 -1 -290 8 -244 5 -300 -24 -417 -10 -45 -28 -48 -73
-14 -25 19 -38 43 -59 110 -16 49 -33 83 -38 80 -6 -4 -19 -25 -29 -48 -17
-38 -19 -73 -19 -497 0 -388 2 -458 15 -469 19 -16 32 -6 51 38 34 82 43 138
32 204 -26 161 -18 251 30 316 46 61 89 34 116 -75 14 -59 15 -79 5 -117 -6
-25 -15 -46 -20 -46 -4 0 -20 -17 -34 -37 -24 -36 -24 -38 -5 -45 26 -10 127
8 156 27 27 18 28 25 12 111 -12 69 -3 117 35 182 42 72 95 61 116 -25 6 -26
17 -61 22 -78 14 -37 11 -117 -3 -126 -13 -8 15 -24 57 -32 50 -9 55 0 45 81
-8 63 -7 80 11 126 28 75 54 106 89 106 24 0 34 -8 54 -42 13 -24 28 -60 31
-80 4 -21 11 -38 15 -38 9 0 20 50 20 90 0 50 9 60 55 60 48 0 80 -24 54 -41
-8 -5 -27 -8 -42 -6 -23 3 -31 -1 -38 -20 -11 -29 -12 -203 -1 -219 18 -27
221 -39 377 -23 14 1 256 -10 335 -16 62 -5 298 -6 550 -2 l115 2 8 105 c7 86
5 111 -7 138 -9 17 -23 32 -32 32 -9 0 -34 5 -55 11 -36 11 -38 14 -41 57 -3
39 -6 46 -27 49 -14 2 -27 6 -30 8 -3 3 10 34 28 70 l33 64 -8 108 c-5 59 -8
133 -8 163 5 539 16 1194 29 1713 2 103 1 187 -3 187 -4 -1 -45 -30 -92 -66z
m-1620 -1874 c0 -5 5 -10 12 -10 7 0 23 -12 36 -27 21 -25 23 -35 19 -106 -3
-44 -9 -83 -15 -89 -6 -6 -22 -3 -45 8 -42 20 -63 66 -53 117 3 18 8 46 11 62
3 17 7 36 10 43 5 14 25 16 25 2z m295 -20 c43 -27 55 -76 39 -159 -8 -40 -30
-40 -72 -1 -32 29 -33 32 -27 88 8 65 14 92 22 92 3 0 20 -9 38 -20z"/>
<path d="M4612 4043 l-20 -29 34 -54 c18 -30 34 -60 34 -67 0 -7 6 -16 13 -20
6 -4 12 -19 12 -33 0 -15 5 -24 13 -22 9 1 11 -6 6 -25 -4 -22 -3 -25 5 -13 9
13 11 13 11 -2 0 -17 18 -26 22 -10 6 29 3 62 -5 62 -5 0 -7 6 -4 14 3 8 1 16
-4 18 -6 2 -24 44 -40 93 -38 114 -49 127 -77 88z"/>
<path d="M2189 3273 c0 -65 -2 -147 -5 -183 -8 -114 -21 -714 -16 -752 5 -43
21 -49 54 -18 23 21 21 -28 28 645 1 72 6 179 11 240 8 97 7 113 -10 145 -10
21 -27 36 -39 38 -21 3 -22 0 -23 -115z"/>
<path d="M8370 1060 c22 -41 54 -51 147 -50 48 0 111 -3 138 -9 98 -19 252
-30 405 -30 97 1 170 -4 195 -11 22 -7 99 -13 170 -14 72 -1 140 -5 153 -10
21 -7 22 -5 22 42 l0 49 -52 7 c-29 4 -188 12 -353 17 -165 5 -376 13 -470 18
-93 6 -214 10 -268 11 -95 0 -97 -1 -87 -20z"/>
<path d="M224 809 c-25 -67 -58 -84 -155 -76 l-69 6 0 -370 0 -369 314 0 315
0 6 57 c11 99 16 114 40 123 21 8 22 12 14 61 -10 62 -17 71 -72 84 -23 5 -40
13 -37 16 3 4 -2 15 -11 25 -9 11 -20 38 -24 61 -4 23 -15 53 -26 67 -10 13
-19 29 -19 34 0 20 -59 72 -82 72 -61 0 -107 76 -115 188 -6 71 -6 72 -33 72
-25 0 -30 -6 -46 -51z"/>
<path d="M8695 670 c-2 -4 3 -14 13 -23 14 -12 74 -17 302 -27 157 -7 310 -14
340 -16 30 -2 99 -1 153 3 82 4 98 8 95 21 -2 12 -16 16 -58 17 -115 2 -757
25 -798 29 -23 2 -44 0 -47 -4z"/>
<path d="M8813 543 c-18 -7 -3 -33 26 -44 54 -21 562 -44 593 -28 14 8 23 8
31 0 6 -6 39 -11 74 -11 l63 0 0 30 c0 29 -2 30 -47 31 -136 1 -312 7 -428 13
-252 12 -300 14 -312 9z"/>
<path d="M9143 183 c-35 -2 -63 -8 -63 -12 0 -10 46 -69 100 -127 36 -40 45
-44 86 -44 l46 0 -5 80 c-3 45 -11 87 -17 95 -8 9 -27 14 -49 13 -20 -1 -64
-3 -98 -5z"/>
</g>
</svg>
